<svg id="Layer_1" data-name="Layer 1" xmlns="http://www.w3.org/2000/svg" xmlns:xlink="http://www.w3.org/1999/xlink" viewBox="0 0 1000 1000"><defs><style>.cls-1,.cls-101,.cls-122{fill:none;}.cls-2{clip-path:url(#clip-path);}.cls-106,.cls-107,.cls-116,.cls-123,.cls-3{fill:#fff;}.cls-19,.cls-4,.cls-56,.cls-57,.cls-58,.cls-59,.cls-93{opacity:0.3;}.cls-5{fill:url(#linear-gradient);}.cls-6{fill:url(#linear-gradient-2);}.cls-7{fill:url(#linear-gradient-3);}.cls-8{fill:url(#linear-gradient-4);}.cls-9{fill:url(#linear-gradient-5);}.cls-10{fill:url(#linear-gradient-6);}.cls-11{fill:url(#linear-gradient-7);}.cls-12{fill:url(#linear-gradient-8);}.cls-13{fill:url(#linear-gradient-9);}.cls-14{fill:url(#linear-gradient-10);}.cls-15{fill:url(#linear-gradient-11);}.cls-16{fill:url(#linear-gradient-12);}.cls-17{fill:url(#linear-gradient-13);}.cls-18{fill:url(#linear-gradient-14);}.cls-19{fill:url(#linear-gradient-15);}.cls-20{fill:url(#linear-gradient-16);}.cls-21{fill:url(#linear-gradient-17);}.cls-22{fill:url(#linear-gradient-18);}.cls-23{fill:url(#linear-gradient-19);}.cls-24{fill:url(#linear-gradient-20);}.cls-25{fill:url(#linear-gradient-21);}.cls-26{fill:url(#linear-gradient-22);}.cls-27{fill:url(#linear-gradient-23);}.cls-28{fill:url(#linear-gradient-24);}.cls-29{fill:url(#linear-gradient-25);}.cls-30{fill:url(#linear-gradient-26);}.cls-31{fill:url(#linear-gradient-27);}.cls-32{fill:url(#linear-gradient-28);}.cls-33{fill:url(#linear-gradient-29);}.cls-34{fill:url(#linear-gradient-30);}.cls-35{fill:url(#linear-gradient-31);}.cls-36{fill:url(#linear-gradient-32);}.cls-37{fill:url(#linear-gradient-33);}.cls-38{fill:url(#linear-gradient-34);}.cls-39{fill:url(#linear-gradient-35);}.cls-40{fill:url(#linear-gradient-36);}.cls-41{fill:url(#linear-gradient-37);}.cls-42{fill:url(#linear-gradient-38);}.cls-43{fill:url(#linear-gradient-39);}.cls-44{fill:url(#linear-gradient-40);}.cls-45{fill:url(#linear-gradient-41);}.cls-46{fill:url(#linear-gradient-42);}.cls-47{fill:url(#linear-gradient-43);}.cls-48{fill:url(#linear-gradient-44);}.cls-49{fill:url(#linear-gradient-45);}.cls-50{fill:url(#linear-gradient-46);}.cls-51{fill:url(#linear-gradient-47);}.cls-52{fill:url(#linear-gradient-48);}.cls-53{fill:url(#linear-gradient-49);}.cls-54{fill:url(#linear-gradient-50);}.cls-55{fill:url(#linear-gradient-51);}.cls-56{fill:url(#linear-gradient-52);}.cls-57{fill:url(#linear-gradient-53);}.cls-58{fill:url(#linear-gradient-54);}.cls-59{fill:url(#linear-gradient-55);}.cls-60{fill:url(#linear-gradient-56);}.cls-61{fill:url(#linear-gradient-57);}.cls-62{fill:url(#linear-gradient-58);}.cls-63{fill:url(#linear-gradient-59);}.cls-64{fill:url(#linear-gradient-60);}.cls-65{fill:url(#linear-gradient-61);}.cls-66{fill:url(#linear-gradient-62);}.cls-67{fill:url(#linear-gradient-63);}.cls-68{fill:url(#linear-gradient-64);}.cls-69{fill:url(#linear-gradient-65);}.cls-70{fill:url(#linear-gradient-66);}.cls-71{fill:url(#linear-gradient-67);}.cls-72{fill:url(#linear-gradient-68);}.cls-73{fill:url(#linear-gradient-69);}.cls-74{fill:url(#linear-gradient-70);}.cls-75{fill:url(#linear-gradient-71);}.cls-76{fill:url(#linear-gradient-72);}.cls-77{fill:url(#linear-gradient-73);}.cls-78{fill:url(#linear-gradient-74);}.cls-79{fill:url(#linear-gradient-75);}.cls-80{fill:url(#linear-gradient-76);}.cls-81{fill:url(#linear-gradient-77);}.cls-82{fill:url(#linear-gradient-78);}.cls-83{fill:url(#linear-gradient-79);}.cls-84{fill:url(#linear-gradient-80);}.cls-85{fill:url(#linear-gradient-81);}.cls-86{fill:url(#linear-gradient-82);}.cls-87{fill:url(#linear-gradient-83);}.cls-88{fill:url(#linear-gradient-84);}.cls-89{fill:url(#linear-gradient-85);}.cls-90{fill:url(#linear-gradient-86);}.cls-91{fill:url(#linear-gradient-87);}.cls-92{fill:url(#linear-gradient-88);}.cls-93{fill:url(#linear-gradient-89);}.cls-94{fill:url(#linear-gradient-90);}.cls-95{fill:url(#linear-gradient-91);}.cls-96{fill:url(#linear-gradient-92);}.cls-97{fill:url(#linear-gradient-93);}.cls-98{opacity:0.59;fill:url(#radial-gradient);}.cls-99{fill:#b73737;}.cls-100{fill:url(#linear-gradient-94);}.cls-101{stroke:#b73737;stroke-width:10px;stroke-dasharray:20;}.cls-101,.cls-122{stroke-miterlimit:10;}.cls-102{font-size:33.18px;fill:#ff4a4a;}.cls-102,.cls-106,.cls-107,.cls-116{font-family:HalyardDisplay-Bold, Halyard Display;font-weight:700;}.cls-103{letter-spacing:0em;}.cls-104{letter-spacing:0em;}.cls-105{letter-spacing:-0.03em;}.cls-106,.cls-107{font-size:74.93px;}.cls-107{letter-spacing:-0.06em;}.cls-108{letter-spacing:0em;}.cls-109{letter-spacing:-0.01em;}.cls-110{letter-spacing:0em;}.cls-111{letter-spacing:0em;}.cls-112{letter-spacing:0em;}.cls-113{letter-spacing:0em;}.cls-114{letter-spacing:-0.01em;}.cls-115{letter-spacing:0em;}.cls-116,.cls-122{opacity:0.5;}.cls-116{font-size:40px;}.cls-117{letter-spacing:0em;}.cls-118{letter-spacing:-0.01em;}.cls-119{letter-spacing:-0.01em;}.cls-120{letter-spacing:0em;}.cls-121{letter-spacing:-0.02em;}.cls-122{stroke:#fff;stroke-linecap:round;stroke-width:5px;}.cls-123{font-size:63.36px;font-family:HalyardDisplayMedium-Italic, Halyard Display;font-style:italic;}.cls-124{letter-spacing:0em;}.cls-125{letter-spacing:0.01em;}.cls-126{letter-spacing:0em;}.cls-127{letter-spacing:0em;}.cls-128{letter-spacing:0em;}.cls-129{letter-spacing:0em;}.cls-130{letter-spacing:0em;}.cls-131{letter-spacing:0em;}.cls-132{letter-spacing:-0.01em;}.cls-133{letter-spacing:0.01em;}.cls-134{letter-spacing:-0.01em;}.cls-135{letter-spacing:0em;}.cls-136{letter-spacing:0em;}.cls-137{letter-spacing:-0.01em;}</style><clipPath id="clip-path"><rect class="cls-1" x="-0.46" y="-0.4" width="1000" height="1000"/></clipPath><linearGradient id="linear-gradient" x1="-372.83" y1="478.46" x2="-322.87" y2="478.46" gradientTransform="translate(1108.68 932.18) rotate(116.59)" gradientUnits="userSpaceOnUse"><stop offset="0" stop-color="#ff4a4a"/><stop offset="1" stop-color="#c93d3d"/></linearGradient><linearGradient id="linear-gradient-2" x1="-428.4" y1="478.28" x2="-379.94" y2="478.28" xlink:href="#linear-gradient"/><linearGradient id="linear-gradient-3" x1="-315.77" y1="478.28" x2="-267.31" y2="478.28" xlink:href="#linear-gradient"/><linearGradient id="linear-gradient-4" x1="-297.24" y1="482.67" x2="-285.83" y2="482.67" gradientTransform="translate(516.04 938.09) rotate(180)" xlink:href="#linear-gradient"/><linearGradient id="linear-gradient-5" x1="1293.48" y1="606.75" x2="1313.33" y2="606.75" gradientTransform="matrix(-0.96, -0.28, 0.28, -0.96, 1193.81, 1387.4)" xlink:href="#linear-gradient"/><linearGradient id="linear-gradient-6" x1="1362.87" y1="604.23" x2="1373.37" y2="604.23" gradientTransform="matrix(-0.96, -0.28, 0.28, -0.96, 1193.81, 1387.4)" xlink:href="#linear-gradient"/><linearGradient id="linear-gradient-7" x1="1378.12" y1="611.26" x2="1409.41" y2="611.26" gradientTransform="matrix(-0.96, -0.28, 0.28, -0.96, 1193.81, 1387.4)" xlink:href="#linear-gradient"/><linearGradient id="linear-gradient-8" x1="1411.75" y1="611.22" x2="1440.87" y2="611.22" gradientTransform="matrix(-0.96, -0.28, 0.28, -0.96, 1193.81, 1387.4)" xlink:href="#linear-gradient"/><linearGradient id="linear-gradient-9" x1="1322.9" y1="606.75" x2="1356.3" y2="606.75" gradientTransform="matrix(-0.96, -0.28, 0.28, -0.96, 1193.81, 1387.4)" xlink:href="#linear-gradient"/><linearGradient id="linear-gradient-10" x1="1198.88" y1="555.33" x2="1215.86" y2="555.33" gradientTransform="matrix(-0.96, -0.28, 0.28, -0.96, 1193.81, 1387.4)" xlink:href="#linear-gradient"/><linearGradient id="linear-gradient-11" x1="1220.71" y1="555.33" x2="1237.69" y2="555.33" gradientTransform="matrix(-0.96, -0.28, 0.28, -0.96, 1193.81, 1387.4)" xlink:href="#linear-gradient"/><linearGradient id="linear-gradient-12" x1="1153.32" y1="613.43" x2="1192.3" y2="613.43" gradientTransform="matrix(-0.96, -0.28, 0.28, -0.96, 1193.81, 1387.4)" xlink:href="#linear-gradient"/><linearGradient id="linear-gradient-13" x1="1243.99" y1="613.43" x2="1282.96" y2="613.43" gradientTransform="matrix(-0.96, -0.28, 0.28, -0.96, 1193.81, 1387.4)" xlink:href="#linear-gradient"/><linearGradient id="linear-gradient-14" x1="1186.79" y1="605.01" x2="1249.5" y2="605.01" gradientTransform="matrix(-0.96, -0.28, 0.28, -0.96, 1193.81, 1387.4)" xlink:href="#linear-gradient"/><linearGradient id="linear-gradient-15" x1="575.36" y1="317.73" x2="699.65" y2="317.73" gradientTransform="translate(309.53 191.63) rotate(-4.45)" xlink:href="#linear-gradient"/><linearGradient id="linear-gradient-16" x1="121.11" y1="856.99" x2="189.89" y2="856.99" gradientTransform="matrix(-0.78, 0.62, -0.62, -0.78, 1139.13, 1197.94)" xlink:href="#linear-gradient"/><linearGradient id="linear-gradient-17" x1="44.61" y1="856.75" x2="111.32" y2="856.75" gradientTransform="matrix(-0.78, 0.62, -0.62, -0.78, 1139.13, 1197.94)" xlink:href="#linear-gradient"/><linearGradient id="linear-gradient-18" x1="199.67" y1="856.75" x2="266.38" y2="856.75" gradientTransform="matrix(-0.78, 0.62, -0.62, -0.78, 1139.13, 1197.94)" xlink:href="#linear-gradient"/><linearGradient id="linear-gradient-19" x1="225.17" y1="862.8" x2="240.88" y2="862.8" gradientTransform="translate(651.67 1531.94) rotate(180)" xlink:href="#linear-gradient"/><linearGradient id="linear-gradient-20" x1="198.5" y1="141.1" x2="210.93" y2="141.1" gradientTransform="translate(20.41 552.98) rotate(11.4)" xlink:href="#linear-gradient"/><linearGradient id="linear-gradient-21" x1="241.95" y1="139.52" x2="248.52" y2="139.52" gradientTransform="translate(20.41 552.98) rotate(11.4)" xlink:href="#linear-gradient"/><linearGradient id="linear-gradient-22" x1="251.49" y1="143.92" x2="271.09" y2="143.92" gradientTransform="translate(20.41 552.98) rotate(11.4)" xlink:href="#linear-gradient"/><linearGradient id="linear-gradient-23" x1="272.56" y1="143.9" x2="290.79" y2="143.9" gradientTransform="translate(20.41 552.98) rotate(11.4)" xlink:href="#linear-gradient"/><linearGradient id="linear-gradient-24" x1="216.92" y1="141.1" x2="237.83" y2="141.1" gradientTransform="translate(20.41 552.98) rotate(11.4)" xlink:href="#linear-gradient"/><linearGradient id="linear-gradient-25" x1="139.25" y1="108.9" x2="149.88" y2="108.9" gradientTransform="translate(20.41 552.98) rotate(11.4)" xlink:href="#linear-gradient"/><linearGradient id="linear-gradient-26" x1="152.92" y1="108.9" x2="163.55" y2="108.9" gradientTransform="translate(20.41 552.98) rotate(11.4)" xlink:href="#linear-gradient"/><linearGradient id="linear-gradient-27" x1="110.72" y1="145.28" x2="135.13" y2="145.28" gradientTransform="translate(20.41 552.98) rotate(11.4)" xlink:href="#linear-gradient"/><linearGradient id="linear-gradient-28" x1="167.5" y1="145.28" x2="191.9" y2="145.28" gradientTransform="translate(20.41 552.98) rotate(11.4)" xlink:href="#linear-gradient"/><linearGradient id="linear-gradient-29" x1="131.68" y1="140.01" x2="170.95" y2="140.01" gradientTransform="translate(20.41 552.98) rotate(11.4)" xlink:href="#linear-gradient"/><linearGradient id="linear-gradient-30" x1="578.21" y1="110.94" x2="590.64" y2="110.94" gradientTransform="translate(20.41 552.98) rotate(11.4)" xlink:href="#linear-gradient"/><linearGradient id="linear-gradient-31" x1="621.66" y1="109.36" x2="628.23" y2="109.36" gradientTransform="translate(20.41 552.98) rotate(11.4)" xlink:href="#linear-gradient"/><linearGradient id="linear-gradient-32" x1="631.21" y1="113.77" x2="650.8" y2="113.77" gradientTransform="translate(20.41 552.98) rotate(11.4)" xlink:href="#linear-gradient"/><linearGradient id="linear-gradient-33" x1="652.27" y1="113.74" x2="670.5" y2="113.74" gradientTransform="translate(20.41 552.98) rotate(11.4)" xlink:href="#linear-gradient"/><linearGradient id="linear-gradient-34" x1="596.63" y1="110.94" x2="617.54" y2="110.94" gradientTransform="translate(20.41 552.98) rotate(11.4)" xlink:href="#linear-gradient"/><linearGradient id="linear-gradient-35" x1="518.96" y1="78.74" x2="529.59" y2="78.74" gradientTransform="translate(20.41 552.98) rotate(11.4)" xlink:href="#linear-gradient"/><linearGradient id="linear-gradient-36" x1="532.63" y1="78.74" x2="543.27" y2="78.74" gradientTransform="translate(20.41 552.98) rotate(11.4)" xlink:href="#linear-gradient"/><linearGradient id="linear-gradient-37" x1="490.43" y1="115.13" x2="514.85" y2="115.13" gradientTransform="translate(20.41 552.98) rotate(11.4)" xlink:href="#linear-gradient"/><linearGradient id="linear-gradient-38" x1="547.21" y1="115.13" x2="571.62" y2="115.13" gradientTransform="translate(20.41 552.98) rotate(11.4)" xlink:href="#linear-gradient"/><linearGradient id="linear-gradient-39" x1="511.39" y1="109.85" x2="550.66" y2="109.85" gradientTransform="translate(20.41 552.98) rotate(11.4)" xlink:href="#linear-gradient"/><linearGradient id="linear-gradient-40" x1="249.31" y1="163.76" x2="288.1" y2="163.76" gradientTransform="translate(31.27 281.76) rotate(-54.29)" xlink:href="#linear-gradient"/><linearGradient id="linear-gradient-41" x1="206.16" y1="163.62" x2="243.79" y2="163.62" gradientTransform="translate(31.27 281.76) rotate(-54.29)" xlink:href="#linear-gradient"/><linearGradient id="linear-gradient-42" x1="293.62" y1="163.62" x2="331.25" y2="163.62" gradientTransform="translate(31.27 281.76) rotate(-54.29)" xlink:href="#linear-gradient"/><linearGradient id="linear-gradient-43" x1="308.01" y1="167.03" x2="316.87" y2="167.03" gradientTransform="translate(36.83 -41.47)" xlink:href="#linear-gradient"/><linearGradient id="linear-gradient-44" x1="507.93" y1="12.31" x2="523.34" y2="12.31" gradientTransform="translate(19.35 -181.19) rotate(25.57)" xlink:href="#linear-gradient"/><linearGradient id="linear-gradient-45" x1="561.81" y1="10.35" x2="569.96" y2="10.35" gradientTransform="translate(19.35 -181.19) rotate(25.57)" xlink:href="#linear-gradient"/><linearGradient id="linear-gradient-46" x1="573.65" y1="15.81" x2="597.95" y2="15.81" gradientTransform="translate(19.35 -181.19) rotate(25.57)" xlink:href="#linear-gradient"/><linearGradient id="linear-gradient-47" x1="599.77" y1="15.78" x2="622.38" y2="15.78" gradientTransform="translate(19.35 -181.19) rotate(25.57)" xlink:href="#linear-gradient"/><linearGradient id="linear-gradient-48" x1="530.77" y1="12.31" x2="556.71" y2="12.31" gradientTransform="translate(19.35 -181.19) rotate(25.57)" xlink:href="#linear-gradient"/><linearGradient id="linear-gradient-49" x1="399.08" y1="17.49" x2="429.35" y2="17.49" gradientTransform="translate(19.35 -181.19) rotate(25.57)" xlink:href="#linear-gradient"/><linearGradient id="linear-gradient-50" x1="469.49" y1="17.5" x2="499.75" y2="17.5" gradientTransform="translate(19.35 -181.19) rotate(25.57)" xlink:href="#linear-gradient"/><linearGradient id="linear-gradient-51" x1="425.07" y1="10.96" x2="473.77" y2="10.96" gradientTransform="translate(19.35 -181.19) rotate(25.57)" xlink:href="#linear-gradient"/><linearGradient id="linear-gradient-52" x1="49.55" y1="78.2" x2="120.49" y2="78.2" gradientTransform="matrix(0.65, 0.76, -0.76, 0.65, 81.13, -37.95)" xlink:href="#linear-gradient"/><linearGradient id="linear-gradient-53" x1="539.14" y1="33.64" x2="630.78" y2="33.64" gradientTransform="translate(333.25 770.08) rotate(-72.23)" xlink:href="#linear-gradient"/><linearGradient id="linear-gradient-54" x1="563.23" y1="-382.19" x2="666.86" y2="-382.19" gradientTransform="matrix(0.79, -0.61, 0.61, 0.79, 493.96, 737.73)" xlink:href="#linear-gradient"/><linearGradient id="linear-gradient-55" x1="-249.79" y1="-99.82" x2="-146.17" y2="-99.82" gradientTransform="translate(566.08 921.67) rotate(7.2)" xlink:href="#linear-gradient"/><linearGradient id="linear-gradient-56" x1="616.61" y1="532.54" x2="654.14" y2="532.54" gradientTransform="matrix(0.87, -0.49, 0.49, 0.87, 43.33, 14.53)" xlink:href="#linear-gradient"/><linearGradient id="linear-gradient-57" x1="574.88" y1="532.41" x2="611.27" y2="532.41" gradientTransform="matrix(0.87, -0.49, 0.49, 0.87, 43.33, 14.53)" xlink:href="#linear-gradient"/><linearGradient id="linear-gradient-58" x1="659.48" y1="532.41" x2="695.87" y2="532.41" gradientTransform="matrix(0.87, -0.49, 0.49, 0.87, 43.33, 14.53)" xlink:href="#linear-gradient"/><linearGradient id="linear-gradient-59" x1="673.39" y1="535.71" x2="681.96" y2="535.71" gradientTransform="translate(219.24 -388.49)" xlink:href="#linear-gradient"/><linearGradient id="linear-gradient-60" x1="222.53" y1="544.15" x2="299.94" y2="544.15" gradientTransform="matrix(1, 0.08, -0.08, 1, 633.76, 190.04)" xlink:href="#linear-gradient"/><linearGradient id="linear-gradient-61" x1="136.43" y1="543.88" x2="211.52" y2="543.88" gradientTransform="matrix(1, 0.08, -0.08, 1, 633.76, 190.04)" xlink:href="#linear-gradient"/><linearGradient id="linear-gradient-62" x1="310.95" y1="543.88" x2="386.04" y2="543.88" gradientTransform="matrix(1, 0.08, -0.08, 1, 633.76, 190.04)" xlink:href="#linear-gradient"/><linearGradient id="linear-gradient-63" x1="339.66" y1="550.68" x2="357.34" y2="550.68" gradientTransform="translate(1489.37 417.49) rotate(90)" xlink:href="#linear-gradient"/><linearGradient id="linear-gradient-64" x1="435.91" y1="721.05" x2="445.57" y2="721.05" gradientTransform="translate(1045.71 828.62) rotate(-159.49)" xlink:href="#linear-gradient"/><linearGradient id="linear-gradient-65" x1="450.22" y1="721.05" x2="466.46" y2="721.05" gradientTransform="translate(1045.71 828.62) rotate(-159.49)" xlink:href="#linear-gradient"/><linearGradient id="linear-gradient-66" x1="389.91" y1="696.05" x2="398.16" y2="696.05" gradientTransform="translate(1045.71 828.62) rotate(-159.49)" xlink:href="#linear-gradient"/><linearGradient id="linear-gradient-67" x1="400.52" y1="696.05" x2="408.78" y2="696.05" gradientTransform="translate(1045.71 828.62) rotate(-159.49)" xlink:href="#linear-gradient"/><linearGradient id="linear-gradient-68" x1="367.75" y1="724.3" x2="386.71" y2="724.3" gradientTransform="translate(1045.71 828.62) rotate(-159.49)" xlink:href="#linear-gradient"/><linearGradient id="linear-gradient-69" x1="411.84" y1="724.3" x2="430.79" y2="724.3" gradientTransform="translate(1045.71 828.62) rotate(-159.49)" xlink:href="#linear-gradient"/><linearGradient id="linear-gradient-70" x1="384.03" y1="720.21" x2="414.52" y2="720.21" gradientTransform="translate(1045.71 828.62) rotate(-159.49)" xlink:href="#linear-gradient"/><linearGradient id="linear-gradient-71" x1="447.39" y1="1147.22" x2="458.56" y2="1147.22" gradientTransform="translate(921.33 2214.42) rotate(-164.43)" xlink:href="#linear-gradient"/><linearGradient id="linear-gradient-72" x1="486.42" y1="1145.81" x2="492.33" y2="1145.81" gradientTransform="translate(921.33 2214.42) rotate(-164.43)" xlink:href="#linear-gradient"/><linearGradient id="linear-gradient-73" x1="495" y1="1149.76" x2="512.61" y2="1149.76" gradientTransform="translate(921.33 2214.42) rotate(-164.43)" xlink:href="#linear-gradient"/><linearGradient id="linear-gradient-74" x1="513.93" y1="1149.74" x2="530.3" y2="1149.74" gradientTransform="translate(921.33 2214.42) rotate(-164.43)" xlink:href="#linear-gradient"/><linearGradient id="linear-gradient-75" x1="463.94" y1="1147.22" x2="482.73" y2="1147.22" gradientTransform="translate(921.33 2214.42) rotate(-164.43)" xlink:href="#linear-gradient"/><linearGradient id="linear-gradient-76" x1="368.54" y1="1150.98" x2="390.47" y2="1150.98" gradientTransform="translate(921.33 2214.42) rotate(-164.43)" xlink:href="#linear-gradient"/><linearGradient id="linear-gradient-77" x1="419.55" y1="1150.99" x2="441.47" y2="1150.99" gradientTransform="translate(921.33 2214.42) rotate(-164.43)" xlink:href="#linear-gradient"/><linearGradient id="linear-gradient-78" x1="387.37" y1="1146.25" x2="422.65" y2="1146.25" gradientTransform="translate(921.33 2214.42) rotate(-164.43)" xlink:href="#linear-gradient"/><linearGradient id="linear-gradient-79" x1="796.78" y1="1213.81" x2="807.95" y2="1213.81" gradientTransform="translate(-829.92 272.28) rotate(-29.43)" xlink:href="#linear-gradient"/><linearGradient id="linear-gradient-80" x1="835.82" y1="1212.39" x2="841.73" y2="1212.39" gradientTransform="translate(-829.92 272.28) rotate(-29.43)" xlink:href="#linear-gradient"/><linearGradient id="linear-gradient-81" x1="844.39" y1="1216.35" x2="862" y2="1216.35" gradientTransform="translate(-829.92 272.28) rotate(-29.43)" xlink:href="#linear-gradient"/><linearGradient id="linear-gradient-82" x1="863.32" y1="1216.33" x2="879.7" y2="1216.33" gradientTransform="translate(-829.92 272.28) rotate(-29.43)" xlink:href="#linear-gradient"/><linearGradient id="linear-gradient-83" x1="813.33" y1="1213.81" x2="832.12" y2="1213.81" gradientTransform="translate(-829.92 272.28) rotate(-29.43)" xlink:href="#linear-gradient"/><linearGradient id="linear-gradient-84" x1="743.56" y1="1184.88" x2="753.11" y2="1184.88" gradientTransform="translate(-829.92 272.28) rotate(-29.43)" xlink:href="#linear-gradient"/><linearGradient id="linear-gradient-85" x1="755.84" y1="1184.88" x2="765.39" y2="1184.88" gradientTransform="translate(-829.92 272.28) rotate(-29.43)" xlink:href="#linear-gradient"/><linearGradient id="linear-gradient-86" x1="717.93" y1="1217.57" x2="739.86" y2="1217.57" gradientTransform="translate(-829.92 272.28) rotate(-29.43)" xlink:href="#linear-gradient"/><linearGradient id="linear-gradient-87" x1="768.94" y1="1217.57" x2="790.86" y2="1217.57" gradientTransform="translate(-829.92 272.28) rotate(-29.43)" xlink:href="#linear-gradient"/><linearGradient id="linear-gradient-88" x1="736.76" y1="1212.83" x2="772.04" y2="1212.83" gradientTransform="translate(-829.92 272.28) rotate(-29.43)" xlink:href="#linear-gradient"/><linearGradient id="linear-gradient-89" x1="-90.53" y1="917.53" x2="2.56" y2="917.53" gradientTransform="translate(403.95 1806.99) rotate(-168.63)" xlink:href="#linear-gradient"/><linearGradient id="linear-gradient-90" x1="283.86" y1="1576.01" x2="353.4" y2="1576.01" gradientTransform="translate(283.18 2531.75) rotate(-171.4)" xlink:href="#linear-gradient"/><linearGradient id="linear-gradient-91" x1="206.51" y1="1575.77" x2="273.96" y2="1575.77" gradientTransform="translate(283.18 2531.75) rotate(-171.4)" xlink:href="#linear-gradient"/><linearGradient id="linear-gradient-92" x1="363.29" y1="1575.77" x2="430.74" y2="1575.77" gradientTransform="translate(283.18 2531.75) rotate(-171.4)" xlink:href="#linear-gradient"/><linearGradient id="linear-gradient-93" x1="389.08" y1="1581.88" x2="404.96" y2="1581.88" gradientTransform="translate(-1454.61 1305.29) rotate(-90)" xlink:href="#linear-gradient"/><radialGradient id="radial-gradient" cx="507.92" cy="502.45" r="721.98" gradientTransform="translate(0 131.97) scale(1 0.74)" gradientUnits="userSpaceOnUse"><stop offset="0.15" stop-color="#ffdbd4"/><stop offset="0.87" stop-color="#c93d3d"/></radialGradient><linearGradient id="linear-gradient-94" x1="314.1" y1="487.7" x2="923.02" y2="487.7" gradientTransform="matrix(1, 0, 0, 1, 0, 0)" xlink:href="#linear-gradient"/></defs><g class="cls-2"><rect class="cls-3" x="-0.46" y="-0.4" width="1000" height="1000"/><g class="cls-4"><path class="cls-5" d="M808.53,418.26l3-6.08a2.31,2.31,0,0,1,3.1-1l16.06,8-1.35-14a3.09,3.09,0,0,1,1.46-2.93l12-7.31-16.06-8.05a2.31,2.31,0,0,1-1-3.1l3-6.07a2.31,2.31,0,0,1,3.1-1l31,15.49a3.08,3.08,0,0,1,.11,5.45l-20,11.08a2.31,2.31,0,0,0-1.17,2.33l3.11,22.64a3.08,3.08,0,0,1-4.43,3.18l-31-15.5A2.31,2.31,0,0,1,808.53,418.26Z"/><path class="cls-6" d="M834.48,366.57l18.93-37.81a3.09,3.09,0,0,1,4.14-1.38L888.69,343a2.31,2.31,0,0,1,1,3.1l-3,6.08a2.31,2.31,0,0,1-3.1,1l-23.69-11.86-11.47,22.91,23.69,11.86a2.31,2.31,0,0,1,1,3.1l-3,6.08a2.31,2.31,0,0,1-3.1,1l-31.14-15.59A3.09,3.09,0,0,1,834.48,366.57Z"/><path class="cls-7" d="M839,447.47,820,485.29a3.09,3.09,0,0,1-4.14,1.38l-31.14-15.59a2.31,2.31,0,0,1-1-3.1l3-6.08a2.31,2.31,0,0,1,3.1-1L812.17,472a1.55,1.55,0,0,0,2.07-.69l10.09-20.16a1.53,1.53,0,0,0-.69-2.06L801.33,438a2.31,2.31,0,0,1-1-3.1l3-6.08a2.31,2.31,0,0,1,3.1-1l31.14,15.59A3.08,3.08,0,0,1,839,447.47Z"/><rect class="cls-8" x="801.88" y="449.65" width="11.41" height="11.52" rx="2.31" transform="translate(38.83 973.69) rotate(-63.41)"/></g><g class="cls-4"><path class="cls-9" d="M121.93,450.07c-1.24.11-2.52.28-3.91.51s-2.73.49-4.07.84-2.66.74-3.92,1.2a22.46,22.46,0,0,0-3.55,1.58l-5.94-1.76,11.2-37.92,8.52,2.52-8,27.16a27.17,27.17,0,0,1,4.42-.91c1.61-.19,3.13-.32,4.58-.37Z"/><path class="cls-10" d="M43,435.36a4.67,4.67,0,0,1,2.56-3.15,5.72,5.72,0,0,1,7.08,2.09,5.28,5.28,0,0,1-2.12,7.18,5.7,5.7,0,0,1-7.11-2.07A4.82,4.82,0,0,1,43,435.36Zm11.8-37.66,8.52,2.52-8.64,29.26L46.13,427Z"/><path class="cls-11" d="M38.11,392.78c.84,4.29,1.5,9.19,2,14.76s.81,11.53.83,17.9l-8.91-2.63c0-1.57.06-3.25.05-5.11s0-3.69-.09-5.58-.08-3.74-.17-5.53-.16-3.43-.31-4.94c-.88,1.18-1.84,2.53-2.89,4s-2.11,3-3.17,4.55-2.1,3.11-3.08,4.64-1.92,3-2.74,4.32L11,416.57c3.51-5.32,7-10.19,10.43-14.57s6.67-8.15,9.71-11.3Z"/><path class="cls-12" d="M13.08,401.1a18.63,18.63,0,0,1-3.23,6.46A15.31,15.31,0,0,1,5.2,411.5a13.83,13.83,0,0,1-5.41,1.61,15.26,15.26,0,0,1-5.59-.57C-10,411.3-13,409-14.67,405.77s-1.81-7.37-.35-12.31c.14-.48.32-1,.51-1.56s.4-1.07.56-1.5l19.11,5.65a5.8,5.8,0,0,0-1.22-4.79,10.4,10.4,0,0,0-5.32-3.2A25.6,25.6,0,0,0-6,387.12a18.22,18.22,0,0,0-3.94-.06l.86-7.07a9.64,9.64,0,0,1,2-.13,26.07,26.07,0,0,1,2.68.15c1,.1,2,.26,3.09.47s2.17.45,3.23.76a19.54,19.54,0,0,1,6.63,3.23,14.4,14.4,0,0,1,4,4.66,13.24,13.24,0,0,1,1.47,5.66A20.15,20.15,0,0,1,13.08,401.1ZM-7.7,398.62a8.39,8.39,0,0,0-.25,2.16,5.15,5.15,0,0,0,.43,2.07,5.69,5.69,0,0,0,1.25,1.75A5.76,5.76,0,0,0-4,405.83a5.7,5.7,0,0,0,2.57.24,5.35,5.35,0,0,0,2.07-.75,5.21,5.21,0,0,0,1.57-1.5,12.57,12.57,0,0,0,1.16-1.92Z"/><path class="cls-13" d="M68.11,442.87l-8.78-2.6,11.2-37.92,8.78,2.6-4.73,16L89,425.25l4.74-16,8.78,2.59-11.2,37.92-8.78-2.59,4.28-14.51L72.4,428.36Z"/><path class="cls-14" d="M189.63,502.91A2.29,2.29,0,0,1,191,504a2.25,2.25,0,0,1,.18,1.72,10.23,10.23,0,0,0,6.9,12.68,2.29,2.29,0,0,1,1.34,1.08,2.26,2.26,0,0,1-2.62,3.25,14.76,14.76,0,0,1-10-18.29,2.27,2.27,0,0,1,1.09-1.34A2.24,2.24,0,0,1,189.63,502.91Z"/><path class="cls-15" d="M180.64,500.25a2.21,2.21,0,0,1,1.34,1.09,2.24,2.24,0,0,1,.19,1.72A14.74,14.74,0,0,1,163.88,513a2.29,2.29,0,0,1-1.34-1.08,2.25,2.25,0,0,1-.18-1.72,2.24,2.24,0,0,1,2.8-1.53,10.24,10.24,0,0,0,12.68-6.89,2.24,2.24,0,0,1,2.8-1.53Z"/><path class="cls-16" d="M230.63,453.3a37.3,37.3,0,0,1,19.46,3.9c5.72,3,8.49,6.59,8.7,7.87.12.68-.17.78-.43.85l-32.15,7.79-1.48,5,34.72-8.42h.06a5.05,5.05,0,0,0,3.74-6c-.59-3.53-5-8-11.08-11.13a38.62,38.62,0,0,0-6.88-2.76A44.15,44.15,0,0,0,227.75,449l.92,1A8.69,8.69,0,0,1,230.63,453.3Z"/><path class="cls-17" d="M140,435l0,0L164.59,461l1.47-5-22.75-24c-.18-.21-.37-.45.1-1,.87-1,5.16-2.49,11.57-1.87a37.34,37.34,0,0,1,18.46,7.29,8.66,8.66,0,0,1,3.43-1.71l1.31-.32A44.17,44.17,0,0,0,162.69,426a39.13,39.13,0,0,0-7.27-1.43c-6.77-.65-12.94.69-15.35,3.33A5.06,5.06,0,0,0,140,435Z"/><path class="cls-18" d="M165.2,474.24l18,18.94a8.69,8.69,0,0,0,8.36,2.47L217,489.54a8.81,8.81,0,0,0,6.32-6l7.4-25.08a8.77,8.77,0,0,0-2-8.48l-18-18.93a8.66,8.66,0,0,0-8.36-2.48l-25.43,6.12a8.77,8.77,0,0,0-6.3,6l-7.41,25.08a8.79,8.79,0,0,0,2,8.46Zm50.72,10.91-8.22,2-33.4-9.86-5.82-6.12a4.21,4.21,0,0,1-1-4.08l1.63-5.5,51.48,15.2-1.63,5.5a4.15,4.15,0,0,1-1.14,1.85A4.21,4.21,0,0,1,215.92,485.15Zm-38-46.07,8.14-2L219.62,447l5.77,6.06a4.2,4.2,0,0,1,1,1.92,4.1,4.1,0,0,1-.05,2.17l-1.63,5.53L173.27,447.5,174.9,442a4.18,4.18,0,0,1,3-2.9Z"/></g><path class="cls-19" d="M991.07,406.31l-7.36,19.55-1.3,15.28-18.8,2.27,1.32-15-27.65-20.74-25.42,12.25L907,453.5l25.54-8.8-.51,6.63,13,18.75,10.9,5.79-1.56,12.32,13.49-6,2.9,1.55.75,9.63,4.3,10.72L968.27,515l36.6-2.85L989.41,501.9,986,489.46l27.61-22.35,7-17.13-6.91-29.18,14.45-13.42-19.8-7.36m12.91,8.77-8.53,7.91-2.84-12ZM911.47,448.1l3.73-25.74L935,412.79l-2.14,27.93Zm36.09,19.17L935.8,450.33l2.84-37.09,22.47,16.87-1.33,15.18L956.44,472Zm11.29,15,4.39-35.09,20.28-2.45,10,9-.66,13.44ZM994,509.31l-18.28,1.42,4.3-6.17-4.81-12-.53-6.75,7.66,4.07,4,14.35Zm16.58-44.43L983.8,486.53l-11.66-6.19,24.29-10.77.74-15,18.59-2.42Zm5.83-16.58L996,451,986,442l1.3-15.28,7.41-18,11.32-4.44Z"/><g class="cls-4"><path class="cls-20" d="M441.28,623.25l7.31-5.84a3.19,3.19,0,0,1,4.47.5l15.43,19.32,6.4-18.29a4.25,4.25,0,0,1,3.53-2.81l19.25-2.2-15.43-19.32a3.19,3.19,0,0,1,.5-4.47l7.31-5.84a3.19,3.19,0,0,1,4.48.5L524.26,622a4.24,4.24,0,0,1-3,6.88l-31.38,2.3a3.17,3.17,0,0,0-2.81,2.24l-9.18,30.09a4.24,4.24,0,0,1-7.37,1.41l-29.74-37.24A3.18,3.18,0,0,1,441.28,623.25Z"/><path class="cls-21" d="M503.56,573.64l45.5-36.33a4.23,4.23,0,0,1,6,.66l29.92,37.47a3.17,3.17,0,0,1-.5,4.47l-7.31,5.84a3.18,3.18,0,0,1-4.47-.5l-22.76-28.5-27.56,22,22.76,28.5a3.18,3.18,0,0,1-.51,4.47l-7.31,5.84a3.18,3.18,0,0,1-4.47-.5L502.89,579.6A4.24,4.24,0,0,1,503.56,573.64Z"/><path class="cls-22" d="M462.45,677.33l-45.51,36.33a4.23,4.23,0,0,1-6-.66l-29.92-37.47a3.19,3.19,0,0,1,.5-4.47l7.31-5.84a3.2,3.2,0,0,1,4.48.5l21.43,26.85a2.13,2.13,0,0,0,3,.33L442,673.53a2.12,2.12,0,0,0,.34-3l-21.44-26.84a3.19,3.19,0,0,1,.5-4.47l7.31-5.84a3.19,3.19,0,0,1,4.47.5l29.92,37.47A4.24,4.24,0,0,1,462.45,677.33Z"/><rect class="cls-23" x="410.79" y="661.21" width="15.71" height="15.87" rx="3.18" transform="translate(-326.04 407.49) rotate(-38.61)"/></g><g class="cls-4"><path class="cls-24" d="M188.52,723.5c.77-.14,1.56-.31,2.41-.53s1.68-.46,2.49-.75,1.62-.61,2.38-1a13.16,13.16,0,0,0,2.13-1.18l3.81.77-4.9,24.27-5.45-1.1,3.5-17.38a16.9,16.9,0,0,1-2.71.81c-1,.21-1.93.37-2.83.48Z"/><path class="cls-25" d="M238.58,728.32a2.9,2.9,0,0,1-1.42,2.1,3.56,3.56,0,0,1-4.53-.91,3.3,3.3,0,0,1,.92-4.6,3.46,3.46,0,0,1,2.46-.38,3.35,3.35,0,0,1,2.09,1.29A3,3,0,0,1,238.58,728.32Zm-5.28,24.14-5.46-1.1,3.78-18.73,5.46,1.1Z"/><path class="cls-26" d="M244,754.61c-.76-2.63-1.44-5.65-2.07-9.1s-1.14-7.14-1.51-11.12l5.7,1.15c.06,1,.14,2,.25,3.19s.23,2.3.37,3.48.25,2.33.41,3.44.29,2.13.46,3.06c.49-.78,1-1.68,1.59-2.65s1.15-2,1.72-3S252,741,252.56,740s1-2,1.47-2.84l5.57,1.13c-1.9,3.51-3.79,6.74-5.7,9.66s-3.72,5.46-5.43,7.59Z"/><path class="cls-27" d="M259.12,748a11.74,11.74,0,0,1,1.66-4.21,9.61,9.61,0,0,1,2.68-2.71,8.68,8.68,0,0,1,3.29-1.31,9.68,9.68,0,0,1,3.52.05,8.62,8.62,0,0,1,5.91,3.73c1.24,1.95,1.53,4.5.9,7.66-.07.31-.15.65-.24,1s-.19.69-.26,1l-12.24-2.47a3.62,3.62,0,0,0,1,2.92,6.49,6.49,0,0,0,3.49,1.71,16,16,0,0,0,3,.32,10.92,10.92,0,0,0,2.46-.18l-.14,4.46a6.12,6.12,0,0,1-1.25.19,14.94,14.94,0,0,1-1.68.05c-.61,0-1.26-.05-2-.12s-1.38-.16-2.06-.29a12.24,12.24,0,0,1-4.31-1.65,9,9,0,0,1-2.73-2.69,8.35,8.35,0,0,1-1.23-3.45A12.79,12.79,0,0,1,259.12,748Zm13.1.4a5.18,5.18,0,0,0,0-1.36,3.36,3.36,0,0,0-.38-1.27,3.54,3.54,0,0,0-.88-1,4,4,0,0,0-3.12-.65,3.46,3.46,0,0,0-1.26.58,3.27,3.27,0,0,0-.89,1,8.77,8.77,0,0,0-.62,1.27Z"/><path class="cls-28" d="M222.49,725l5.62,1.14-4.89,24.27-5.62-1.14L219.67,739l-9.26-1.86-2.07,10.26-5.62-1.13L207.61,722l5.62,1.14-1.87,9.28,9.26,1.87Z"/><path class="cls-29" d="M143.38,694.28a1.41,1.41,0,0,1-1.11-1.67,6.39,6.39,0,0,0-5-7.52,1.41,1.41,0,1,1,.56-2.77A9.21,9.21,0,0,1,145,693.17a1.41,1.41,0,0,1-.6.9A1.42,1.42,0,0,1,143.38,694.28Z"/><path class="cls-30" d="M149.13,695.44a1.43,1.43,0,0,1-1.11-1.67,9.23,9.23,0,0,1,10.86-7.21,1.41,1.41,0,0,1,.9.6,1.44,1.44,0,0,1,.2,1.07,1.39,1.39,0,0,1-.6.89,1.37,1.37,0,0,1-1.06.21,6.41,6.41,0,0,0-7.53,5,1.41,1.41,0,0,1-1.66,1.11Z"/><path class="cls-31" d="M120.54,727.49a23.46,23.46,0,0,1-12.36-1.36c-3.73-1.54-5.66-3.64-5.86-4.43-.11-.42.06-.49.23-.56l19.62-6.63.64-3.21-21.19,7.17h0a3.17,3.17,0,0,0-2,3.93c.56,2.17,3.59,4.71,7.53,6.33a23.67,23.67,0,0,0,4.44,1.34,27.77,27.77,0,0,0,11-.08l-.62-.55A5.38,5.38,0,0,1,120.54,727.49Z"/><path class="cls-32" d="M178.1,733.91l0,0-16.76-14.82-.64,3.2L176.18,736c.13.12.26.26,0,.6-.49.65-3.09,1.84-7.12,1.81a23.27,23.27,0,0,1-11.91-3.53,5.38,5.38,0,0,1-2.05,1.26l-.8.27a27.83,27.83,0,0,0,10.12,4.34,24.73,24.73,0,0,0,4.62.49c4.26,0,8-1.14,9.39-2.92A3.16,3.16,0,0,0,178.1,733.91Z"/><path class="cls-33" d="M160.2,710.81,147.92,700a5.51,5.51,0,0,0-2.53-1.26,5.4,5.4,0,0,0-2.82.18l-15.52,5.22a5.52,5.52,0,0,0-2.35,1.56,5.41,5.41,0,0,0-1.26,2.53l-3.24,16a5.47,5.47,0,0,0,1.75,5.18l12.27,10.82a5.51,5.51,0,0,0,2.53,1.26,5.45,5.45,0,0,0,2.83-.18l15.52-5.22a5.51,5.51,0,0,0,3.6-4.1l3.23-16a5.41,5.41,0,0,0-.18-2.82A5.53,5.53,0,0,0,160.2,710.81Zm-32.25-4,5-1.69,21.38,4.31,4,3.5a2.64,2.64,0,0,1,.84,2.49l-.71,3.52L125.5,712.3l.71-3.52a2.61,2.61,0,0,1,.61-1.22A2.71,2.71,0,0,1,128,706.81Zm26.24,26.64-5,1.67-21.47-4.33-3.93-3.46a2.67,2.67,0,0,1-.76-1.14,2.62,2.62,0,0,1-.09-1.36l.72-3.54,32.95,6.65-.71,3.53a2.71,2.71,0,0,1-.61,1.22A2.58,2.58,0,0,1,154.19,733.45Z"/></g><g class="cls-4"><path class="cls-34" d="M566.7,769c.77-.14,1.56-.32,2.41-.54a23.26,23.26,0,0,0,2.5-.75c.81-.29,1.62-.6,2.38-1a15,15,0,0,0,2.13-1.18l3.8.77L575,790.59l-5.46-1.1,3.5-17.38a17.65,17.65,0,0,1-2.71.81c-1,.21-1.93.37-2.83.48Z"/><path class="cls-35" d="M616.76,773.8a2.89,2.89,0,0,1-1.42,2.1,3.59,3.59,0,0,1-4.53-.91,3.31,3.31,0,0,1,.93-4.6,3.59,3.59,0,0,1,4.55.9A3,3,0,0,1,616.76,773.8Zm-5.28,24.14-5.45-1.1,3.77-18.73,5.46,1.1Z"/><path class="cls-36" d="M622.15,800.09c-.76-2.63-1.44-5.65-2.07-9.1s-1.14-7.14-1.51-11.12l5.7,1.15c.06,1,.15,2,.26,3.19s.22,2.3.36,3.48.26,2.32.41,3.44.29,2.13.47,3.06c.48-.78,1-1.68,1.58-2.65s1.15-2,1.72-3,1.14-2.06,1.67-3.07,1-2,1.47-2.84l5.57,1.13c-1.89,3.51-3.78,6.74-5.7,9.66a92.77,92.77,0,0,1-5.43,7.58Z"/><path class="cls-37" d="M637.31,793.52a11.32,11.32,0,0,1,1.66-4.21,9.52,9.52,0,0,1,2.68-2.72,8.6,8.6,0,0,1,3.29-1.3,9.41,9.41,0,0,1,3.51.05,8.62,8.62,0,0,1,5.91,3.73q1.86,2.92.9,7.66c-.06.31-.15.65-.24,1s-.19.69-.26,1l-12.24-2.47a3.68,3.68,0,0,0,1,2.92,6.52,6.52,0,0,0,3.5,1.7,15.79,15.79,0,0,0,3,.33,11.55,11.55,0,0,0,2.46-.18l-.14,4.46a6.13,6.13,0,0,1-1.24.19c-.51.05-1.08.05-1.68.05a19.59,19.59,0,0,1-2-.12,19.84,19.84,0,0,1-2.05-.3,12.11,12.11,0,0,1-4.32-1.65,8.81,8.81,0,0,1-2.72-2.68,8.22,8.22,0,0,1-1.24-3.45A12.49,12.49,0,0,1,637.31,793.52Zm13.1.4a5.25,5.25,0,0,0,0-1.37,3.36,3.36,0,0,0-.38-1.26,3.71,3.71,0,0,0-.88-1,3.76,3.76,0,0,0-1.5-.64,3.53,3.53,0,0,0-1.62,0,3.34,3.34,0,0,0-1.25.58,3.17,3.17,0,0,0-.9,1,7.79,7.79,0,0,0-.61,1.27Z"/><path class="cls-38" d="M600.67,770.5l5.62,1.13-4.89,24.28-5.62-1.14,2.07-10.26-9.26-1.87-2.07,10.27-5.62-1.14,4.89-24.27,5.62,1.13-1.87,9.29,9.26,1.87Z"/><path class="cls-39" d="M521.56,739.76a1.46,1.46,0,0,1-.9-.61,1.41,1.41,0,0,1-.21-1.06,6.37,6.37,0,0,0-5-7.52,1.46,1.46,0,0,1-.9-.61,1.42,1.42,0,0,1,1.46-2.17,9.23,9.23,0,0,1,7.21,10.86,1.41,1.41,0,0,1-.6.9A1.46,1.46,0,0,1,521.56,739.76Z"/><path class="cls-40" d="M527.31,740.92a1.46,1.46,0,0,1-.9-.61,1.41,1.41,0,0,1-.21-1.06A9.23,9.23,0,0,1,537.06,732a1.41,1.41,0,0,1,.9.6,1.42,1.42,0,0,1-1.46,2.17,6.46,6.46,0,0,0-4.8.94,6.38,6.38,0,0,0-2.72,4.06,1.43,1.43,0,0,1-1.67,1.11Z"/><path class="cls-41" d="M498.72,773a23.27,23.27,0,0,1-12.36-1.36c-3.73-1.53-5.65-3.63-5.86-4.42-.1-.42.07-.5.23-.56L500.35,760l.65-3.21L479.8,764h0a3.16,3.16,0,0,0-2,3.92c.57,2.17,3.59,4.72,7.53,6.34a25.26,25.26,0,0,0,4.44,1.34,27.79,27.79,0,0,0,11-.09l-.62-.55A5.49,5.49,0,0,1,498.72,773Z"/><path class="cls-42" d="M556.28,779.39l0,0L539.5,764.54l-.65,3.21,15.52,13.72c.12.12.25.26,0,.6-.49.65-3.08,1.84-7.12,1.81a23.4,23.4,0,0,1-11.91-3.53,5.63,5.63,0,0,1-2.05,1.26l-.8.27a27.79,27.79,0,0,0,10.13,4.34,24.63,24.63,0,0,0,4.61.49c4.26,0,8-1.14,9.39-2.93A3.15,3.15,0,0,0,556.28,779.39Z"/><path class="cls-43" d="M538.38,756.29,526.1,745.47a5.44,5.44,0,0,0-5.35-1.08l-15.52,5.22a5.35,5.35,0,0,0-2.35,1.56,5.51,5.51,0,0,0-1.26,2.53l-3.24,16a5.52,5.52,0,0,0,.19,2.82,5.44,5.44,0,0,0,1.56,2.36l12.27,10.81a5.43,5.43,0,0,0,5.36,1.09l15.52-5.22a5.63,5.63,0,0,0,2.35-1.58,5.41,5.41,0,0,0,1.25-2.52l3.24-16a5.47,5.47,0,0,0-1.74-5.17Zm-32.24-4,5-1.69,21.39,4.31,4,3.5a2.58,2.58,0,0,1,.76,1.13,2.72,2.72,0,0,1,.08,1.36l-.71,3.52-32.95-6.65.71-3.51A2.71,2.71,0,0,1,505,753,2.56,2.56,0,0,1,506.14,752.29Zm26.23,26.64-5,1.67-21.48-4.33L502,772.81a2.56,2.56,0,0,1-.75-1.14,2.62,2.62,0,0,1-.09-1.36l.71-3.54,33,6.64-.71,3.54a2.61,2.61,0,0,1-.61,1.22A2.58,2.58,0,0,1,532.37,778.93Z"/></g><g class="cls-4"><path class="cls-44" d="M344,153.94l-3.08,4.28a1.78,1.78,0,0,1-2.5.41l-11.33-8.14-.69,10.91a2.38,2.38,0,0,1-1.48,2.07l-10.12,4.13,11.32,8.14a1.78,1.78,0,0,1,.41,2.5l-3.08,4.29a1.8,1.8,0,0,1-2.5.41l-21.83-15.69a2.4,2.4,0,0,1,.58-4.2l16.69-6a1.8,1.8,0,0,0,1.19-1.65l.4-17.74a2.39,2.39,0,0,1,3.78-1.89l21.83,15.69A1.79,1.79,0,0,1,344,153.94Z"/><path class="cls-45" d="M317.71,190.37,298.54,217a2.4,2.4,0,0,1-3.34.55l-22-15.79a1.79,1.79,0,0,1-.41-2.5l3.08-4.29a1.81,1.81,0,0,1,2.51-.41l16.7,12,11.61-16.15-16.7-12a1.8,1.8,0,0,1-.41-2.51l3.08-4.28a1.78,1.78,0,0,1,2.5-.41l22,15.78A2.39,2.39,0,0,1,317.71,190.37Z"/><path class="cls-46" d="M324.23,127.8l19.17-26.67a2.4,2.4,0,0,1,3.34-.55l22,15.79a1.78,1.78,0,0,1,.41,2.5L366,123.16a1.8,1.8,0,0,1-2.5.41l-15.74-11.31a1.19,1.19,0,0,0-1.67.27l-10.21,14.21a1.19,1.19,0,0,0,.27,1.67l15.73,11.31a1.79,1.79,0,0,1,.41,2.51l-3.08,4.28a1.78,1.78,0,0,1-2.5.41l-22-15.79A2.38,2.38,0,0,1,324.23,127.8Z"/><rect class="cls-47" x="344.84" y="121.09" width="8.86" height="8.95" rx="1.79" transform="translate(43.44 335.87) rotate(-54.29)"/></g><g class="cls-4"><path class="cls-48" d="M476.05,41.14c1,.07,2,.1,3.06.1s2.15-.05,3.22-.15,2.13-.24,3.15-.43a17.34,17.34,0,0,0,2.92-.78L492.74,42,479.49,69.65l-6.23-3,9.49-19.84a22,22,0,0,1-3.5.15c-1.25-.05-2.44-.14-3.55-.28Z"/><path class="cls-49" d="M534.77,62.14a3.63,3.63,0,0,1-2.35,2.1,4.43,4.43,0,0,1-5.17-2.48,4.09,4.09,0,0,1,2.51-5.24A4.43,4.43,0,0,1,535,59,3.79,3.79,0,0,1,534.77,62.14ZM521.09,89.56l-6.22-3,10.22-21.37,6.23,3Z"/><path class="cls-50" d="M533.26,95.39c-.11-3.39,0-7.23.27-11.57s.8-8.94,1.57-13.83l6.51,3.12c-.23,1.19-.45,2.48-.67,3.91s-.43,2.83-.62,4.29-.4,2.87-.55,4.26-.29,2.65-.37,3.82c.82-.79,1.72-1.71,2.71-2.7s2-2,3-3.09,2-2.13,2.93-3.19,1.84-2,2.63-3l6.36,3c-3.35,3.66-6.6,7-9.79,9.89s-6.12,5.43-8.83,7.47Z"/><path class="cls-51" d="M553.48,92.09a14.41,14.41,0,0,1,3.27-4.56,12,12,0,0,1,4-2.45,10.78,10.78,0,0,1,4.35-.57,12,12,0,0,1,4.22,1.13,10.66,10.66,0,0,1,6,6.28c.91,2.72.49,5.87-1.24,9.48-.17.35-.37.73-.59,1.13s-.44.78-.61,1.08l-14-6.68a4.53,4.53,0,0,0,.35,3.83,8,8,0,0,0,3.68,3.1,19.21,19.21,0,0,0,3.47,1.3,14,14,0,0,0,3,.53L567.92,111a9,9,0,0,1-1.56-.15,18.94,18.94,0,0,1-2-.45,23.51,23.51,0,0,1-2.31-.74c-.81-.29-1.61-.61-2.39-1A15.19,15.19,0,0,1,555,105.4a10.92,10.92,0,0,1-2.46-4.06,10.24,10.24,0,0,1-.44-4.52A15.78,15.78,0,0,1,553.48,92.09Zm15.63,4.46a6.39,6.39,0,0,0,.45-1.63,4.1,4.1,0,0,0-.07-1.64,4.47,4.47,0,0,0-.74-1.5,4.61,4.61,0,0,0-1.62-1.23,4.48,4.48,0,0,0-1.94-.49,4.22,4.22,0,0,0-1.68.31,4.09,4.09,0,0,0-1.39,1A8.94,8.94,0,0,0,561,92.67Z"/><path class="cls-52" d="M516.42,53.29l6.42,3.07-13.25,27.7L503.17,81l5.61-11.71-10.57-5.06-5.6,11.71-6.42-3.07,13.26-27.69,6.41,3.07-5.07,10.59,10.57,5.06Z"/><path class="cls-53" d="M393.1,25.29a29,29,0,0,1-14.44-5.38c-4-3-5.7-6.1-5.71-7.1,0-.54.23-.58.44-.6l25.61-2,1.75-3.66L373.1,8.71h-.05a3.93,3.93,0,0,0-3.6,4.11c0,2.78,2.88,6.76,7.12,9.9a30.47,30.47,0,0,0,4.94,3,34.41,34.41,0,0,0,13.27,3.25l-.58-.85A6.76,6.76,0,0,1,393.1,25.29Z"/><path class="cls-54" d="M460.36,50.5l0,0L444.68,27.55l-1.75,3.66,14.49,21.21c.12.18.23.39-.19.72-.79.63-4.27,1.27-9.1,0a29,29,0,0,1-13.26-7.86,6.8,6.8,0,0,1-2.84.89l-1,.08a34.63,34.63,0,0,0,10.86,8.3,29.6,29.6,0,0,0,5.4,2c5.11,1.34,10,1.07,12.18-.66A3.92,3.92,0,0,0,460.36,50.5Z"/><path class="cls-55" d="M445.85,17.29,434.37.55a6.74,6.74,0,0,0-2.66-2.28,6.62,6.62,0,0,0-3.45-.64L408-.81A6.76,6.76,0,0,0,402.44,3l-8.77,18.31a6.79,6.79,0,0,0,.53,6.76l11.47,16.73a6.73,6.73,0,0,0,6.11,2.93L432,46.18A6.82,6.82,0,0,0,435.32,45a6.74,6.74,0,0,0,2.28-2.66L446.37,24a6.84,6.84,0,0,0-.52-6.74ZM408.29,2.69l6.55-.51,24.4,11.68,3.71,5.4a3.42,3.42,0,0,1,.56,1.6,3.23,3.23,0,0,1-.31,1.65l-1.92,4-37.6-18,1.92-4a3.29,3.29,0,0,1,1.1-1.27A3.18,3.18,0,0,1,408.29,2.69Zm23.46,40-6.48.5-24.5-11.72-3.68-5.36a3.28,3.28,0,0,1-.56-1.6,3.18,3.18,0,0,1,.31-1.66l1.93-4,37.6,18-1.93,4a3.3,3.3,0,0,1-2.69,1.85Z"/></g><path class="cls-56" d="M108,69.71,96.5,72.85,89,77.36l-7.34-7.94L89,65l.34-19.72L75.21,37.64l-17.15,9L70.67,55.5l-3.23,2L63.12,69.76l1,7-6.21,3.4,7.27,4.24.26,1.86-4.21,3.57-3.51,5.57-7.55.14,13.56,16-.45-10.57,4.61-5.75,19.57,5.3L97.67,98l11.18-13,11,2.19-3.22-11.62m.26,8.91-6.51-1.3L115,77.86ZM62.05,46.88,75.2,40l11,6L72.62,54.32ZM65.26,70l3.9-11.11,18.1-11.09-.29,16-7.46,4.46L66.05,75.66ZM62.12,80.21,79.81,70.5l7.92,8.56-.8,7.64-6.44,4.19Zm-.78,25.3-6.77-8,4.29-.08,3.94-6.24,3-2.5.68,4.9-5.32,6.63Zm26.09-7.2-19-5.12-1-7.46,13.1,7.62,7.2-4.69,7.34,7.79Zm9.62-2.85-8-8.54.8-7.61,7.49-4.51,10.78-2.58L113.91,76Z"/><path class="cls-57" d="M513.89,194.1l11.29,10.47,10.07,5.15-3.7,13.47-9.88-5.09-21.86,13.09L501.09,252l21.56,12.68,1.12-19.89,4.38,2.2,16.43-3.64,7-5.82,8,4.49-.32-10.87,1.87-1.55,6.78,2.17,8.52.06,5.3,8.18L590,214.19l-11.28,7.7-9.45-1.13-7.55-25.07-9.75-9.53-21.85-3.43-5.13-13.6L514.4,180.59m9.59-6.36,3,8-9-1.41Zm-3.78,85.85-16.52-9.72-1-16.2,18.47,9.25Zm23.15-19.28-14.84,3.3L504,231.81l17.78-10.63,10,5.15,17.28,9.72Zm13.36-3.54L534,224.48,538,210l8.92-4.34,9,4.2ZM585,220.85l-4.12,12.87-3-4.65-9.55-.07-4.75-1.52,4.91-4.09,10.9,1.3Zm-25.69-23.7,7.31,24.28-7.47,6.23-.58-19.58-10.06-4.69L552,190Zm-9.69-8.61-3.87,14.66-8.9,4.32-10.07-5.15-10.18-10.06.12-9Z"/><path class="cls-58" d="M736.38,12.35l3.84,17,6.09,11.24-12,10.2-6-11.06L699.54,38,687.45,58.13l12,25.61,13.75-17.83,2.69,4.85,17.64,7.1,10.24-1,4.57,9.29L755,75.84l2.74-.24L762.68,82l7.91,5.49-.28,11,24.18-18.76-15.45,0L771,72.59l9-28.22-3-15.12L758.74,12.1l3.91-16-17.16,4m13,.19-2.32,9.42-7.46-7ZM700.1,77.94l-9.2-19.63,9.42-15.75L711.63,63ZM734,74.75l-16-6.41-15-27.13,23.37,1.45,6,11.18L742.36,74ZM748.74,80l-13-26.44,13-11L759.8,44.2l5.71,9.67Zm36.86,2.77-12.08,9.37.17-6.27-8.86-6.16-3.45-4.46,7.19-.68,9.33,8.19Zm-8.82-38.54-8.69,27.33-11,1,12-18.63-6.38-10.81,11.84-10.21ZM773.25,30l-13,11.2L749.2,39.54l-6.09-11.23L740,12.41l5.85-8.28Z"/><path class="cls-59" d="M408.41,758.44l-9.3,14.73-3.63,12.25-15.74-1.31,3.61-12-19.09-21.59-22.82,5.73-9.61,26.6,22.34-2.88-1.53,5.33,7.46,17.49,7.92,6.56-3.35,9.8,12-2.61,2.11,1.76-1,8,1.71,9.47-8,7.6,30.36,3.83L391,836.22l-.71-10.74,26.31-13.6,8.56-12.82-.72-25,14-8.52-14.92-9.35m9.06,9.34-8.3,5-.3-10.25Zm-96.22,13.63,7.38-20.39,17.79-4.48-6.45,22.45Zm26.24,21.73-6.75-15.82,8.57-29.8,15.5,17.55L376.3,785l-7.22,21.23Zm6.7,14.11,9.49-27.91,17,1.41,6.66,9-2.8,10.86Zm24.12,28-15.17-1.91,4.55-4.31-1.91-10.63.71-5.59,5.57,4.61.8,12.38Zm21-33.48L389,822.72l-8.47-7,21.64-4.7,3.13-12.16,15.6,1.15ZM422,797l-17.09-1.26-6.65-9,3.63-12.25L411,761.07l10-1.72Z"/><g class="cls-4"><path class="cls-60" d="M880.76,170l-4.44,2.51a1.74,1.74,0,0,1-2.37-.65l-6.64-11.75-5,9.3a2.31,2.31,0,0,1-2.14,1.21l-10.57-.48,6.65,11.75a1.74,1.74,0,0,1-.66,2.36l-4.44,2.51a1.73,1.73,0,0,1-2.37-.65L836,163.46a2.32,2.32,0,0,1,2.21-3.45l17.11,1.47a1.71,1.71,0,0,0,1.7-1l7.55-15.42a2.32,2.32,0,0,1,4.1-.12l12.8,22.63A1.75,1.75,0,0,1,880.76,170Z"/><path class="cls-61" d="M842.92,191.32,815.27,207a2.31,2.31,0,0,1-3.16-.88l-12.88-22.77a1.74,1.74,0,0,1,.66-2.36l4.44-2.51a1.73,1.73,0,0,1,2.37.65l9.79,17.32,16.76-9.47-9.8-17.32a1.74,1.74,0,0,1,.66-2.37l4.44-2.51a1.74,1.74,0,0,1,2.37.66l12.87,22.77A2.31,2.31,0,0,1,842.92,191.32Z"/><path class="cls-62" d="M874,139l27.66-15.64a2.31,2.31,0,0,1,3.15.87L917.72,147a1.74,1.74,0,0,1-.66,2.37l-4.44,2.51a1.74,1.74,0,0,1-2.37-.66L901,134.93a1.16,1.16,0,0,0-1.58-.44l-14.74,8.34a1.15,1.15,0,0,0-.44,1.57l9.23,16.32a1.73,1.73,0,0,1-.66,2.36l-4.44,2.52a1.74,1.74,0,0,1-2.36-.66l-12.88-22.77A2.31,2.31,0,0,1,874,139Z"/><rect class="cls-63" x="892.63" y="142.89" width="8.57" height="8.66" rx="1.74" transform="translate(43.74 460.62) rotate(-29.49)"/></g><g class="cls-4"><path class="cls-64" d="M884.82,786.35l-10.49-.81a3.59,3.59,0,0,1-3.3-3.85l2.15-27.75-19.32,10.13a4.78,4.78,0,0,1-5.06-.39l-17.53-13-2.15,27.75a3.57,3.57,0,0,1-3.84,3.29l-10.5-.81a3.58,3.58,0,0,1-3.29-3.85l4.14-53.48a4.77,4.77,0,0,1,7.75-3.35L851,742.46a3.58,3.58,0,0,0,4,.31l30.66-17.7a4.78,4.78,0,0,1,7.15,4.51l-4.14,53.48A3.58,3.58,0,0,1,884.82,786.35Z"/><path class="cls-65" d="M795.48,779.32l-65.34-5.06a4.77,4.77,0,0,1-4.39-5.13l4.17-53.8a3.58,3.58,0,0,1,3.84-3.3l10.5.82a3.57,3.57,0,0,1,3.29,3.84l-3.17,40.93L784,760.69l3.17-40.93a3.57,3.57,0,0,1,3.84-3.29l10.5.81a3.57,3.57,0,0,1,3.29,3.84l-4.16,53.81A4.78,4.78,0,0,1,795.48,779.32Z"/><path class="cls-66" d="M909,725.6l65.34,5.06a4.77,4.77,0,0,1,4.39,5.13l-4.17,53.8a3.58,3.58,0,0,1-3.84,3.3l-10.5-.81a3.59,3.59,0,0,1-3.29-3.85l3-38.55a2.38,2.38,0,0,0-2.19-2.56l-34.83-2.7a2.39,2.39,0,0,0-2.56,2.2l-3,38.54a3.58,3.58,0,0,1-3.84,3.3l-10.5-.82a3.57,3.57,0,0,1-3.29-3.84L903.82,730A4.78,4.78,0,0,1,909,725.6Z"/><rect class="cls-67" x="929.76" y="757.14" width="17.86" height="17.68" rx="3.58" transform="translate(102.51 1642.72) rotate(-85.57)"/></g><g class="cls-4"><path class="cls-68" d="M888.19,5.74c-.61,0-1.24,0-1.92.11a18.86,18.86,0,0,0-2,.27,19.59,19.59,0,0,0-1.94.44,11.68,11.68,0,0,0-1.78.65l-2.82-1.06,6.74-18,4,1.52L883.69,2.55a14.36,14.36,0,0,1,2.18-.29c.78,0,1.52,0,2.23,0Z"/><path class="cls-69" d="M862.33.39l-4.17-1.56,6.74-18,4.17,1.56L866.22-10l6.87,2.57L875.94-15l4.17,1.56-6.74,18L869.2,3l2.58-6.89L864.91-6.5Z"/><path class="cls-70" d="M919.21,33.7a1.07,1.07,0,0,1,.61.57,1.11,1.11,0,0,1,0,.84,5,5,0,0,0,2.91,6.38,1.11,1.11,0,0,1,.64,1.42,1.1,1.1,0,0,1-.57.61,1.11,1.11,0,0,1-.84,0,7.18,7.18,0,0,1-4.2-9.21,1.12,1.12,0,0,1,.58-.61A1,1,0,0,1,919.21,33.7Z"/><path class="cls-71" d="M914.94,32.1a1.1,1.1,0,0,1,.61.57,1.11,1.11,0,0,1,0,.84,7.18,7.18,0,0,1-9.21,4.2,1.11,1.11,0,0,1-.64-1.42,1.1,1.1,0,0,1,.57-.61,1.11,1.11,0,0,1,.84,0,5,5,0,0,0,3.79-.13,5,5,0,0,0,2.6-2.78,1.07,1.07,0,0,1,.57-.61A1.11,1.11,0,0,1,914.94,32.1Z"/><path class="cls-72" d="M940.81,11.05a18,18,0,0,1,9.3,2.56c2.67,1.63,3.89,3.48,3.95,4.11,0,.34-.11.37-.24.4L938,20.79l-.89,2.38,17.13-2.89h0a2.45,2.45,0,0,0,2-2.76c-.17-1.73-2.17-4.06-5-5.78A18.76,18.76,0,0,0,948,10.16a21.39,21.39,0,0,0-8.46-1.29l.41.5A4.25,4.25,0,0,1,940.81,11.05Z"/><path class="cls-73" d="M897.46-1l0,0,11,13.42.89-2.37L899.18-2.32c-.08-.11-.16-.23.08-.46.46-.44,2.59-1,5.68-.51a18.07,18.07,0,0,1,8.7,4.17,4.24,4.24,0,0,1,1.73-.71L916,.06a21.66,21.66,0,0,0-7.23-4.58,19.26,19.26,0,0,0-3.48-.94c-3.26-.55-6.3-.11-7.56,1.09A2.45,2.45,0,0,0,897.46-1Z"/><path class="cls-74" d="M908.34,19l8.09,9.81A4.26,4.26,0,0,0,918.21,30a4.09,4.09,0,0,0,2.19.21l12.54-2.09a4.27,4.27,0,0,0,3.27-2.69l4.46-11.91a4.26,4.26,0,0,0,.2-2.18,4.2,4.2,0,0,0-.9-2L931.88-.44a4.22,4.22,0,0,0-1.78-1.28,4.29,4.29,0,0,0-2.19-.21L915.37.17a4.22,4.22,0,0,0-2,.91,4.35,4.35,0,0,0-1.28,1.78l-4.45,11.91a4.27,4.27,0,0,0,.69,4.18Zm24.23,7-4.05.67-15.87-5.93L910,17.56a2,2,0,0,1-.43-1,2.12,2.12,0,0,1,.09-1.06l1-2.61,24.45,9.15-1,2.61a2,2,0,0,1-.61.86A2,2,0,0,1,932.57,26ZM915.73,2.33l4-.67,15.93,6,2.59,3.14a2,2,0,0,1,.44,1,2.08,2.08,0,0,1-.1,1l-1,2.63L913.18,6.26l1-2.63a2.19,2.19,0,0,1,.61-.86A2.16,2.16,0,0,1,915.73,2.33Z"/></g><g class="cls-4"><path class="cls-75" d="M796.61,995.4c-.7.07-1.42.18-2.2.32s-1.53.3-2.28.51-1.49.44-2.19.71a13,13,0,0,0-2,.91l-3.36-.93,6-21.43,4.81,1.35-4.27,15.34a15.63,15.63,0,0,1,2.48-.55c.9-.12,1.75-.21,2.57-.24Z"/><path class="cls-76" d="M752.07,987.81a2.64,2.64,0,0,1,1.41-1.79,3.11,3.11,0,0,1,2.21-.18,3.07,3.07,0,0,1,1.79,1.29,3,3,0,0,1-1.13,4.06,3.23,3.23,0,0,1-4-1.11A2.72,2.72,0,0,1,752.07,987.81Zm6.31-21.29,4.82,1.35-4.61,16.53-4.82-1.34Z"/><path class="cls-77" d="M749,963.9c.5,2.4.92,5.15,1.26,8.29s.55,6.47.62,10.06l-5-1.41c0-.88,0-1.82,0-2.87s0-2.07-.1-3.14-.08-2.1-.14-3.11-.13-1.92-.22-2.77c-.49.67-1,1.44-1.59,2.27s-1.16,1.69-1.74,2.58-1.16,1.77-1.7,2.64-1,1.69-1.5,2.45l-4.92-1.37c1.93-3,3.83-5.8,5.74-8.29s3.69-4.64,5.37-6.44Z"/><path class="cls-78" d="M735,968.8a10.66,10.66,0,0,1-1.76,3.66,8.8,8.8,0,0,1-2.58,2.26,8,8,0,0,1-3,.95,8.79,8.79,0,0,1-3.15-.27,7.76,7.76,0,0,1-5-3.74c-1-1.82-1.09-4.13-.31-6.91.08-.28.18-.58.28-.89s.22-.6.3-.84l10.8,3a3.3,3.3,0,0,0-.73-2.69,5.81,5.81,0,0,0-3-1.75,13.65,13.65,0,0,0-2.63-.49,10.19,10.19,0,0,0-2.22,0l.42-4a6.75,6.75,0,0,1,1.12-.09c.46,0,1,0,1.51.07a16.45,16.45,0,0,1,1.74.24,18.58,18.58,0,0,1,1.83.39,11.07,11.07,0,0,1,3.75,1.76,8,8,0,0,1,2.27,2.59,7.43,7.43,0,0,1,.88,3.17A11.59,11.59,0,0,1,735,968.8Zm-11.71-1.22a4.22,4.22,0,0,0-.12,1.22,2.85,2.85,0,0,0,.26,1.16,3,3,0,0,0,.71,1,3.25,3.25,0,0,0,1.31.68,3.36,3.36,0,0,0,1.45.11,3.18,3.18,0,0,0,1.16-.44,3,3,0,0,0,.87-.86,7,7,0,0,0,.63-1.09Z"/><path class="cls-79" d="M766.27,991.81l-5-1.38,6-21.43,5,1.39-2.52,9.06,8.17,2.27,2.53-9.06,5,1.39-6,21.42-5-1.38,2.28-8.2-8.17-2.27Z"/><path class="cls-80" d="M857.78,996.27a21.08,21.08,0,0,1,11,2c3.24,1.62,4.83,3.63,5,4.35.07.38-.09.44-.24.48l-18,4.66-.79,2.83,19.46-5h0a2.84,2.84,0,0,0,2.05-3.38c-.36-2-2.9-4.46-6.32-6.17a21.92,21.92,0,0,0-3.9-1.49,24.75,24.75,0,0,0-9.88-.65l.53.54A4.93,4.93,0,0,1,857.78,996.27Z"/><path class="cls-81" d="M806.62,986.75l0,0,14.05,14.37.78-2.83-13-13.31c-.11-.11-.21-.24,0-.53.49-.55,2.89-1.45,6.5-1.16a21,21,0,0,1,10.44,3.95,5,5,0,0,1,1.92-1l.73-.19a24.74,24.74,0,0,0-8.78-4.55,21.22,21.22,0,0,0-4.11-.74c-3.81-.31-7.27.5-8.6,2A2.84,2.84,0,0,0,806.62,986.75Z"/><path class="cls-82" d="M821.16,1008.62l10.29,10.5a4.93,4.93,0,0,0,4.72,1.32l14.25-3.67a4.88,4.88,0,0,0,3.5-3.42l4-14.17a5,5,0,0,0-1.22-4.76l-10.3-10.49a4.92,4.92,0,0,0-2.18-1.3,4.86,4.86,0,0,0-2.54,0l-14.25,3.66a4.87,4.87,0,0,0-2.2,1.26,4.81,4.81,0,0,0-1.29,2.18l-3.95,14.17a4.83,4.83,0,0,0,0,2.53A4.92,4.92,0,0,0,821.16,1008.62Zm28.62,5.69-4.6,1.19-18.88-5.26-3.33-3.39a2.46,2.46,0,0,1-.59-1.07,2.4,2.4,0,0,1,0-1.22l.87-3.11,29.09,8.11-.87,3.11a2.35,2.35,0,0,1-.62,1.05A2.46,2.46,0,0,1,849.78,1014.31ZM828,988.73l4.56-1.17,18.95,5.28,3.3,3.36a2.38,2.38,0,0,1,.6,1.07,2.33,2.33,0,0,1,0,1.23l-.87,3.12-29.09-8.11.87-3.12a2.39,2.39,0,0,1,1.69-1.66Z"/></g><g class="cls-4"><path class="cls-83" d="M457.27,932.39c.44-.54.88-1.12,1.33-1.77s.87-1.3,1.25-2,.74-1.36,1-2a13.47,13.47,0,0,0,.76-2.05l3-1.72,10.93,19.38-4.35,2.45-7.83-13.87a15,15,0,0,1-1.37,2.14c-.55.72-1.09,1.39-1.64,2Z"/><path class="cls-84" d="M494.13,906.27a2.63,2.63,0,0,1,.27,2.26,3.13,3.13,0,0,1-1.43,1.69,3.06,3.06,0,0,1-2.19.35,2.62,2.62,0,0,1-1.8-1.4,2.59,2.59,0,0,1-.26-2.26,3.17,3.17,0,0,1,3.62-2.06A2.72,2.72,0,0,1,494.13,906.27Zm10.59,19.51-4.35,2.46-8.44-15,4.36-2.46Z"/><path class="cls-85" d="M513.23,921c-2.06-1.34-4.29-3-6.75-5s-5-4.19-7.55-6.67l4.55-2.57c.62.63,1.29,1.3,2,2s1.51,1.43,2.3,2.15,1.53,1.43,2.29,2.1,1.45,1.27,2.12,1.81c-.13-.82-.3-1.74-.48-2.73s-.37-2-.6-3.06-.43-2.07-.67-3.07-.45-1.94-.67-2.79l4.45-2.51c.78,3.5,1.39,6.81,1.8,9.92a83.62,83.62,0,0,1,.76,8.34Z"/><path class="cls-86" d="M519.68,907.61a10.52,10.52,0,0,1-1.35-3.83,8.74,8.74,0,0,1,.23-3.42,7.77,7.77,0,0,1,1.47-2.82,8.77,8.77,0,0,1,2.42-2,7.76,7.76,0,0,1,6.21-.93c2,.6,3.68,2.16,5.11,4.68.14.25.28.53.43.82l.38.81-9.76,5.51a3.24,3.24,0,0,0,2.41,1.38,5.84,5.84,0,0,0,3.38-.89,14.31,14.31,0,0,0,2.2-1.52,10,10,0,0,0,1.57-1.57l2.52,3.12a6.09,6.09,0,0,1-.73.86c-.32.33-.7.67-1.11,1s-.89.7-1.4,1.06-1,.7-1.57,1a11,11,0,0,1-3.9,1.41,8.14,8.14,0,0,1-3.44-.22,7.54,7.54,0,0,1-2.86-1.63A11,11,0,0,1,519.68,907.61Zm9.14-7.42a4.49,4.49,0,0,0-.78-1,2.87,2.87,0,0,0-1-.63,3,3,0,0,0-1.2-.18,3.15,3.15,0,0,0-1.4.44,3.25,3.25,0,0,0-1.1,1,3,3,0,0,0-.52,2.35,7.05,7.05,0,0,0,.32,1.22Z"/><path class="cls-87" d="M481.26,913.48l4.48-2.53,10.93,19.37-4.48,2.53-4.63-8.19-7.39,4.17L484.8,937l-4.49,2.53-10.93-19.37,4.49-2.53,4.18,7.41,7.39-4.17Z"/><path class="cls-88" d="M409.42,939a1.24,1.24,0,0,1-1,.12,1.29,1.29,0,0,1-.77-.6,5.76,5.76,0,0,0-7.82-2.18,1.24,1.24,0,0,1-1,.12,1.29,1.29,0,0,1-.77-.6,1.26,1.26,0,0,1,.48-1.73,8.29,8.29,0,0,1,11.28,3.14,1.26,1.26,0,0,1-.48,1.73Z"/><path class="cls-89" d="M414,936.45a1.24,1.24,0,0,1-1,.12,1.29,1.29,0,0,1-.77-.6,8.29,8.29,0,0,1,3.15-11.28,1.29,1.29,0,0,1,1.73.48,1.31,1.31,0,0,1,.11,1,1.28,1.28,0,0,1-.6.77,5.75,5.75,0,0,0-2.18,7.81,1.27,1.27,0,0,1,.12,1A1.23,1.23,0,0,1,414,936.45Z"/><path class="cls-90" d="M413.4,975a21,21,0,0,1-9.2,6.33c-3.44,1.15-6,.85-6.58.44-.32-.22-.25-.38-.18-.51l9.45-16-1.45-2.56L395.25,980l0,0a2.82,2.82,0,0,0,.94,3.84c1.66,1.15,5.21,1.1,8.83-.11a21.29,21.29,0,0,0,3.81-1.7,25,25,0,0,0,7.45-6.53h-.75A4.78,4.78,0,0,1,413.4,975Z"/><path class="cls-91" d="M456.3,945.59h0l-20.1-.23,1.44,2.56,18.61.21c.16,0,.33,0,.35.41,0,.73-1,3.07-3.78,5.41a20.88,20.88,0,0,1-10.17,4.6,4.88,4.88,0,0,1-.65,2.06l-.39.65a25,25,0,0,0,9.44-3,21.78,21.78,0,0,0,3.42-2.38c2.91-2.48,4.79-5.49,4.67-7.5A2.84,2.84,0,0,0,456.3,945.59Z"/><path class="cls-92" d="M430.57,940.4l-14.71-.14a4.88,4.88,0,0,0-4.27,2.41l-7.48,12.66a4.94,4.94,0,0,0-.06,4.9L411.28,973a5,5,0,0,0,1.78,1.81,4.92,4.92,0,0,0,2.45.69l14.7.14a4.88,4.88,0,0,0,4.27-2.41L442,960.61a5,5,0,0,0,.67-2.45,4.89,4.89,0,0,0-.63-2.45l-7.23-12.81a4.91,4.91,0,0,0-1.78-1.81A5,5,0,0,0,430.57,940.4ZM406.3,956.62l2.42-4.1,17.06-9.62,4.75,0a2.44,2.44,0,0,1,1.18.33,2.39,2.39,0,0,1,.86.87l1.58,2.81-26.3,14.84L406.27,959a2.23,2.23,0,0,1-.3-1.18A2.33,2.33,0,0,1,406.3,956.62Zm33.48,2.7-2.4,4L420.24,973l-4.7,0a2.47,2.47,0,0,1-1.19-.33,2.5,2.5,0,0,1-.86-.88L411.9,969l26.3-14.84,1.6,2.83a2.44,2.44,0,0,1,.3,1.18A2.35,2.35,0,0,1,439.78,959.32Z"/></g><path class="cls-93" d="M601.88,949.71l9.3-12.58,4.05-10.75,14,2.21-4,10.55,15.69,20.58,20.82-3.64,10.35-23.2L651.89,934l1.72-4.67-5.54-16.17-6.67-6.39,3.64-8.56-10.94,1.55-1.78-1.71,1.43-7.09-.91-8.61,7.66-6.28-27-5.42,9.05,10.52-.07,9.67L598.07,901.3l-8.51,10.93-1,22.43-13.15,6.72,12.77,9.35m-7.51-9,7.76-4L588,947Zm87.09-5.91-7.94,17.78-16.24,2.85,7.25-19.69Zm-22.09-21.19,5,14.61-9.63,26.14-12.74-16.74L632.39,928l7.86-18.54Zm-5.08-13.08L630.27,926l-15.11-2.37-5.39-8.51,3.23-9.56ZM620.83,874.9l13.47,2.71-4.36,3.57,1,9.64-1,5-4.69-4.5.09-11.15Zm-21,28.63,23.68-10.14,7.14,6.84L610.93,903l-3.59,10.68-13.9-2.05Zm-7.59,10.76,15.23,2.24,5.37,8.5-4.06,10.74-9,11.42-9.06.89Z"/><g class="cls-4"><path class="cls-94" d="M176.87,893.55l9.35,1.42a3.22,3.22,0,0,1,2.7,3.66l-3.74,24.72,18-7.81a4.25,4.25,0,0,1,4.5.68L222.51,929l3.74-24.72a3.22,3.22,0,0,1,3.66-2.7l9.36,1.41a3.22,3.22,0,0,1,2.69,3.66l-7.2,47.65a4.29,4.29,0,0,1-7.17,2.49l-23.26-21.7a3.22,3.22,0,0,0-3.59-.55L172.1,948.4a4.28,4.28,0,0,1-6.1-4.5l7.2-47.65A3.23,3.23,0,0,1,176.87,893.55Z"/><path class="cls-95" d="M256.45,905.69l58.21,8.81a4.3,4.3,0,0,1,3.6,4.88L311,967.32a3.23,3.23,0,0,1-3.66,2.7L298,968.6a3.21,3.21,0,0,1-2.7-3.66l5.51-36.46-35.26-5.34L260,959.6a3.21,3.21,0,0,1-3.66,2.7L247,960.89a3.22,3.22,0,0,1-2.7-3.66l7.25-47.94A4.29,4.29,0,0,1,256.45,905.69Z"/><path class="cls-96" d="M151.27,946.4l-58.21-8.81a4.28,4.28,0,0,1-3.59-4.88l7.25-47.93a3.21,3.21,0,0,1,3.66-2.7l9.35,1.42a3.21,3.21,0,0,1,2.7,3.66l-5.2,34.34a2.15,2.15,0,0,0,1.8,2.44l31,4.69a2.14,2.14,0,0,0,2.44-1.8l5.2-34.34a3.22,3.22,0,0,1,3.66-2.7l9.35,1.42a3.22,3.22,0,0,1,2.7,3.66l-7.25,47.93A4.29,4.29,0,0,1,151.27,946.4Z"/><rect class="cls-97" x="119.25" y="900.34" width="16.04" height="15.88" rx="3.22" transform="matrix(0.15, -0.99, 0.99, 0.15, -789.83, 898.25)"/></g><rect class="cls-98" x="-0.46" y="-0.4" width="1000" height="1000"/></g><path class="cls-99" d="M829.38,512.29a51,51,0,0,0,51,51V727.58H77V563.33a51,51,0,0,0,0-102.07V297H880.41V461.26A51,51,0,0,0,829.38,512.29Z"/><polygon class="cls-99" points="119.59 297.01 119.59 272.42 76.97 297.01 119.59 297.01"/><polygon class="cls-99" points="923.03 702.99 880.41 702.99 880.41 727.58 923.03 702.99"/><path class="cls-100" d="M872,487.7a51.06,51.06,0,0,0,51,51.05V703H314.1V272.42H923V436.67A51,51,0,0,0,872,487.7Z"/><path class="cls-3" d="M313.79,272.42V703H119.28V538.75a51,51,0,1,0,0-102.08V272.42Z"/><path class="cls-101" d="M314.1,703V272.42"/><text class="cls-102" transform="translate(218.96 539.66) rotate(-90)"><tspan class="cls-103">A<tspan class="cls-104" x="23.06" y="0">DM</tspan><tspan x="75.74" y="0">I</tspan><tspan class="cls-105" x="85.26" y="0">T</tspan></tspan><tspan x="17.85" y="26.57">ONE</tspan></text><polyline class="cls-99" points="119.28 538.75 76.97 563.33 119.28 563.33"/><rect class="cls-3" x="140.87" y="552.53" width="150" height="150"/><path d="M198.05,572.33a1,1,0,0,0,1-1v1Z"/><path d="M203.87,571.31v-2.76a1,1,0,0,0-1-1h-2.76a1,1,0,0,0-1,1h0v3.78h4.8Z"/><path d="M222.05,572.33a1,1,0,0,0,1-1v1Z"/><path d="M227.87,571.31v-2.76a1,1,0,0,0-1-1h-2.76a1,1,0,0,0-1,1h0v3.78h4.8Z"/><rect x="232.67" y="567.53" width="4.8" height="4.8" rx="1.02"/><path d="M198.05,572.33h-2.76a1,1,0,0,0-1,1h0v2.76a1,1,0,0,0,1,1h3.78v-4.8Z"/><rect x="199.07" y="572.33" width="4.8" height="4.8"/><path d="M207.65,577.13a1,1,0,0,0,1-1v1Z"/><path d="M204.89,577.13a1,1,0,0,1-1-1v1Z"/><path d="M209.69,572.33a1,1,0,0,0-1,1h0v3.78h4.8v-4.8Z"/><rect x="213.47" y="572.33" width="4.8" height="4.8"/><rect x="218.27" y="572.33" width="4.8" height="4.8"/><path d="M227.87,576.11a1,1,0,0,1-1,1h-3.78v-4.8h4.8Z"/><path d="M199.07,578.15v-1h-1A1,1,0,0,1,199.07,578.15Z"/><path d="M198.05,581.93a1,1,0,0,0,1-1v1Z"/><rect x="199.07" y="577.13" width="4.8" height="4.8"/><rect x="203.87" y="577.13" width="4.8" height="4.8"/><rect x="208.67" y="577.13" width="4.8" height="4.8"/><path d="M214.49,577.13h-1v1a1,1,0,0,1,1-1Z"/><path d="M198.05,581.93h-2.76a1,1,0,0,0-1,1h0v2.76a1,1,0,0,0,1,1h3.78v-4.8Z"/><path d="M203.87,585.71a1,1,0,0,1-1,1h-3.78v-4.8h4.8Z"/><path d="M204.89,581.93h-1v1a1,1,0,0,1,1-1Z"/><path d="M208.67,583v-1h-1A1,1,0,0,1,208.67,583Z"/><path d="M208.67,585.71a1,1,0,0,0,1,1h2.76a1,1,0,0,0,1-1v-3.78h-4.8Z"/><rect x="218.27" y="581.93" width="4.8" height="4.8" rx="1.02"/><path d="M228.89,581.93a1,1,0,0,0-1,1h0v3.78h4.8v-4.8Z"/><path d="M236.45,581.93a1,1,0,0,1,1,1v3.78h-4.8v-4.8Z"/><path d="M208.67,590.51v-2.76a1,1,0,0,0-1-1h-2.76a1,1,0,0,0-1,1h0v3.78h4.8Z"/><rect x="213.47" y="586.73" width="4.8" height="4.8" rx="1.02"/><path d="M226.85,591.53a1,1,0,0,0,1-1v1Z"/><rect x="227.87" y="586.73" width="4.8" height="4.8"/><path d="M237.47,590.51a1,1,0,0,1-1,1h-3.78v-4.8h4.8Z"/><path d="M199.07,595.31v-2.76a1,1,0,0,0-1-1h-2.76a1,1,0,0,0-1,1h0v3.78h4.8Z"/><rect x="203.87" y="591.53" width="4.8" height="4.8"/><path d="M222.05,591.53h-2.76a1,1,0,0,0-1,1h0v2.76a1,1,0,0,0,1,1h3.78v-4.8Z"/><rect x="223.07" y="591.53" width="4.8" height="4.8"/><path d="M232.67,595.31a1,1,0,0,1-1,1h-3.78v-4.8h4.8Z"/><path d="M233.69,591.53h-1v1a1,1,0,0,1,1-1Z"/><path d="M194.27,600.11a1,1,0,0,0,1,1h2.76a1,1,0,0,0,1-1v-3.78h-4.8Z"/><path d="M203.87,600.11a1,1,0,0,0,1,1h2.76a1,1,0,0,0,1-1v-3.78h-4.8Z"/><path d="M218.27,600.11v-2.76a1,1,0,0,0-1-1h-2.76a1,1,0,0,0-1,1h0v3.78h4.8Z"/><path d="M223.07,597.35v-1h-1A1,1,0,0,1,223.07,597.35Z"/><path d="M223.07,600.11a1,1,0,0,0,1,1h2.76a1,1,0,0,0,1-1v-3.78h-4.8Z"/><path d="M228.89,596.33h-1v1a1,1,0,0,1,1-1Z"/><path d="M237.47,600.11v-2.76a1,1,0,0,0-1-1h-2.76a1,1,0,0,0-1,1h0v3.78h4.8Z"/><rect x="213.47" y="601.13" width="4.8" height="4.8"/><path d="M219.29,605.93a1,1,0,0,1-1-1v1Z"/><path d="M232.67,604.91a1,1,0,0,0,1,1h2.76a1,1,0,0,0,1-1v-3.78h-4.8Z"/><path d="M156.89,605.93a1,1,0,0,0-1,1h0v3.78h4.8v-4.8Z"/><rect x="160.67" y="605.93" width="4.8" height="4.8"/><rect x="165.47" y="605.93" width="4.8" height="4.8"/><rect x="170.27" y="605.93" width="4.8" height="4.8"/><path d="M178.85,605.93a1,1,0,0,1,1,1v3.78h-4.8v-4.8Z"/><path d="M180.89,610.73a1,1,0,0,1-1-1v1Z"/><path d="M188.45,605.93h-2.76a1,1,0,0,0-1,1h0v2.76a1,1,0,0,0,1,1h3.78v-4.8Z"/><rect x="189.47" y="605.93" width="4.8" height="4.8"/><rect x="194.27" y="605.93" width="4.8" height="4.8"/><rect x="199.07" y="605.93" width="4.8" height="4.8"/><path d="M204.89,610.73h2.76a1,1,0,0,0,1-1V607a1,1,0,0,0-1-1h-3.78v4.8Z"/><path d="M213.47,609.71a1,1,0,0,0,1,1h3.78v-4.8h-4.8Z"/><path d="M219.29,610.73h2.76a1,1,0,0,0,1-1V607a1,1,0,0,0-1-1h-3.78v4.8Z"/><path d="M226.85,610.73a1,1,0,0,0,1-1v1Z"/><path d="M232.67,609.71V607a1,1,0,0,0-1-1h-2.76a1,1,0,0,0-1,1h0v3.78h4.8Z"/><path d="M236.45,610.73a1,1,0,0,0,1-1v1Z"/><path d="M233.69,610.73a1,1,0,0,1-1-1v1Z"/><path d="M242.27,609.71V607a1,1,0,0,0-1-1h-2.76a1,1,0,0,0-1,1h0v3.78h4.8Z"/><path d="M251.87,609.71V607a1,1,0,0,0-1-1h-2.76a1,1,0,0,0-1,1h0v3.78h4.8Z"/><path d="M252.89,610.73a1,1,0,0,1-1-1v1Z"/><rect x="256.67" y="605.93" width="4.8" height="4.8" rx="1.02"/><rect x="266.27" y="605.93" width="4.8" height="4.8" rx="1.02"/><path d="M155.87,614.51a1,1,0,0,0,1,1h2.76a1,1,0,0,0,1-1v-3.78h-4.8Z"/><path d="M161.69,610.73h-1v1a1,1,0,0,1,1-1Z"/><path d="M170.27,611.75v-1h-1A1,1,0,0,1,170.27,611.75Z"/><path d="M170.27,614.51a1,1,0,0,0,1,1h3.78v-4.8h-4.8Z"/><rect x="175.07" y="610.73" width="4.8" height="4.8"/><path d="M183.65,610.73a1,1,0,0,1,1,1v3.78h-4.8v-4.8Z"/><path d="M185.69,615.53a1,1,0,0,1-1-1v1Z"/><path d="M199.07,611.75v-1h-1A1,1,0,0,1,199.07,611.75Z"/><rect x="199.07" y="610.73" width="4.8" height="4.8"/><path d="M204.89,610.73h-1v1a1,1,0,0,1,1-1Z"/><path d="M224.09,610.73a1,1,0,0,0-1,1h0v3.78h4.8v-4.8Z"/><rect x="227.87" y="610.73" width="4.8" height="4.8"/><rect x="232.67" y="610.73" width="4.8" height="4.8"/><rect x="237.47" y="610.73" width="4.8" height="4.8"/><path d="M243.29,615.53a1,1,0,0,1-1-1v1Z"/><path d="M247.07,614.51a1,1,0,0,0,1,1h3.78v-4.8h-4.8Z"/><path d="M255.65,610.73a1,1,0,0,1,1,1v3.78h-4.8v-4.8Z"/><rect x="271.07" y="610.73" width="4.8" height="4.8" rx="1.02"/><path d="M159.65,620.33a1,1,0,0,0,1-1v1Z"/><path d="M165.47,619.31v-2.76a1,1,0,0,0-1-1h-2.76a1,1,0,0,0-1,1h0v3.78h4.8Z"/><path d="M166.49,620.33a1,1,0,0,1-1-1v1Z"/><path d="M179.87,616.55v-1h-1A1,1,0,0,1,179.87,616.55Z"/><path d="M179.87,619.31a1,1,0,0,0,1,1h3.78v-4.8h-4.8Z"/><rect x="184.67" y="615.53" width="4.8" height="4.8"/><path d="M193.25,615.53a1,1,0,0,1,1,1v3.78h-4.8v-4.8Z"/><path d="M198.05,620.33a1,1,0,0,0,1-1v1Z"/><path d="M195.29,620.33a1,1,0,0,1-1-1v1Z"/><rect x="199.07" y="615.53" width="4.8" height="4.8"/><path d="M207.65,620.33a1,1,0,0,0,1-1v1Z"/><path d="M204.89,620.33a1,1,0,0,1-1-1v1Z"/><path d="M209.69,615.53a1,1,0,0,0-1,1h0v3.78h4.8v-4.8Z"/><path d="M214.49,620.33h2.76a1,1,0,0,0,1-1v-2.76a1,1,0,0,0-1-1h-3.78v4.8Z"/><path d="M222.05,620.33a1,1,0,0,0,1-1v1Z"/><rect x="223.07" y="615.53" width="4.8" height="4.8"/><path d="M232.67,619.31a1,1,0,0,1-1,1h-3.78v-4.8h4.8Z"/><path d="M233.69,615.53h-1v1a1,1,0,0,1,1-1Z"/><path d="M237.47,616.55v-1h-1A1,1,0,0,1,237.47,616.55Z"/><path d="M236.45,620.33a1,1,0,0,0,1-1v1Z"/><rect x="237.47" y="615.53" width="4.8" height="4.8"/><path d="M243.29,620.33h2.76a1,1,0,0,0,1-1v-2.76a1,1,0,0,0-1-1h-3.78v4.8Z"/><path d="M251.87,616.55v-1h-1A1,1,0,0,1,251.87,616.55Z"/><path d="M251.87,619.31a1,1,0,0,0,1,1h2.76a1,1,0,0,0,1-1v-3.78h-4.8Z"/><rect x="261.47" y="615.53" width="4.8" height="4.8" rx="1.02"/><path d="M156.89,620.33a1,1,0,0,0-1,1h0v3.78h4.8v-4.8Z"/><rect x="160.67" y="620.33" width="4.8" height="4.8"/><rect x="165.47" y="620.33" width="4.8" height="4.8"/><path d="M171.29,625.13h2.76a1,1,0,0,0,1-1v-2.76a1,1,0,0,0-1-1h-3.78v4.8Z"/><path d="M189.47,621.35v-1h-1A1,1,0,0,1,189.47,621.35Z"/><path d="M189.47,624.11a1,1,0,0,0,1,1h3.78v-4.8h-4.8Z"/><rect x="194.27" y="620.33" width="4.8" height="4.8"/><rect x="199.07" y="620.33" width="4.8" height="4.8"/><rect x="203.87" y="620.33" width="4.8" height="4.8"/><rect x="208.67" y="620.33" width="4.8" height="4.8"/><path d="M214.49,620.33h-1v1a1,1,0,0,1,1-1Z"/><path d="M219.29,620.33a1,1,0,0,0-1,1h0v3.78h4.8v-4.8Z"/><path d="M227.87,624.11a1,1,0,0,1-1,1h-3.78v-4.8h4.8Z"/><path d="M228.89,620.33h-1v1a1,1,0,0,1,1-1Z"/><path d="M236.45,620.33h-2.76a1,1,0,0,0-1,1h0v2.76a1,1,0,0,0,1,1h3.78v-4.8Z"/><path d="M242.27,624.11a1,1,0,0,1-1,1h-3.78v-4.8h4.8Z"/><path d="M243.29,620.33h-1v1a1,1,0,0,1,1-1Z"/><rect x="155.87" y="625.13" width="4.8" height="4.8"/><rect x="160.67" y="625.13" width="4.8" height="4.8"/><rect x="165.47" y="625.13" width="4.8" height="4.8"/><path d="M171.29,625.13h-1v1a1,1,0,0,1,1-1Z"/><path d="M171.29,629.93a1,1,0,0,1-1-1v1Z"/><rect x="184.67" y="625.13" width="4.8" height="4.8" rx="1.02"/><path d="M194.27,626.15v-1h-1A1,1,0,0,1,194.27,626.15Z"/><rect x="194.27" y="625.13" width="4.8" height="4.8"/><path d="M203.87,628.91a1,1,0,0,1-1,1h-3.78v-4.8h4.8Z"/><path d="M204.89,625.13h-1v1a1,1,0,0,1,1-1Z"/><path d="M208.67,626.15v-1h-1A1,1,0,0,1,208.67,626.15Z"/><path d="M208.67,628.91a1,1,0,0,0,1,1h2.76a1,1,0,0,0,1-1v-3.78h-4.8Z"/><path d="M218.27,628.91a1,1,0,0,0,1,1h2.76a1,1,0,0,0,1-1v-3.78h-4.8Z"/><path d="M224.09,625.13h-1v1a1,1,0,0,1,1-1Z"/><rect x="227.87" y="625.13" width="4.8" height="4.8" rx="1.02"/><path d="M241.25,629.93a1,1,0,0,0,1-1v1Z"/><path d="M243.29,625.13a1,1,0,0,0-1,1h0v3.78h4.8v-4.8Z"/><rect x="247.07" y="625.13" width="4.8" height="4.8"/><rect x="251.87" y="625.13" width="4.8" height="4.8"/><path d="M257.69,629.93h2.76a1,1,0,0,0,1-1v-2.76a1,1,0,0,0-1-1h-3.78v4.8Z"/><path d="M270.05,625.13h-2.76a1,1,0,0,0-1,1h0v2.76a1,1,0,0,0,1,1h3.78v-4.8Z"/><path d="M272.09,629.93h2.76a1,1,0,0,0,1-1v-2.76a1,1,0,0,0-1-1h-3.78v4.8Z"/><rect x="155.87" y="629.93" width="4.8" height="4.8"/><rect x="160.67" y="629.93" width="4.8" height="4.8"/><rect x="165.47" y="629.93" width="4.8" height="4.8"/><rect x="170.27" y="629.93" width="4.8" height="4.8"/><path d="M176.09,634.73h2.76a1,1,0,0,0,1-1V631a1,1,0,0,0-1-1h-3.78v4.8Z"/><rect x="194.27" y="629.93" width="4.8" height="4.8"/><path d="M200.09,629.93h-1v1a1,1,0,0,1,1-1Z"/><path d="M202.85,634.73a1,1,0,0,0,1-1v1Z"/><path d="M200.09,634.73a1,1,0,0,1-1-1v1Z"/><path d="M208.67,633.71V631a1,1,0,0,0-1-1h-2.76a1,1,0,0,0-1,1h0v3.78h4.8Z"/><rect x="213.47" y="629.93" width="4.8" height="4.8" rx="1.02"/><path d="M236.45,629.93h-2.76a1,1,0,0,0-1,1h0v2.76a1,1,0,0,0,1,1h3.78v-4.8Z"/><rect x="237.47" y="629.93" width="4.8" height="4.8"/><rect x="242.27" y="629.93" width="4.8" height="4.8"/><rect x="247.07" y="629.93" width="4.8" height="4.8"/><rect x="251.87" y="629.93" width="4.8" height="4.8"/><path d="M257.69,629.93h-1v1a1,1,0,0,1,1-1Z"/><rect x="155.87" y="634.73" width="4.8" height="4.8"/><path d="M161.69,634.73h-1v1a1,1,0,0,1,1-1Z"/><path d="M180.89,634.73a1,1,0,0,0-1,1h0v3.78h4.8v-4.8Z"/><path d="M185.69,639.53h2.76a1,1,0,0,0,1-1v-2.76a1,1,0,0,0-1-1h-3.78v4.8Z"/><rect x="194.27" y="634.73" width="4.8" height="4.8"/><rect x="199.07" y="634.73" width="4.8" height="4.8"/><path d="M208.67,638.51a1,1,0,0,1-1,1h-3.78v-4.8h4.8Z"/><path d="M227.87,638.51v-2.76a1,1,0,0,0-1-1h-2.76a1,1,0,0,0-1,1h0v3.78h4.8Z"/><path d="M237.47,635.75v-1h-1A1,1,0,0,1,237.47,635.75Z"/><rect x="237.47" y="634.73" width="4.8" height="4.8"/><path d="M247.07,638.51a1,1,0,0,1-1,1h-3.78v-4.8h4.8Z"/><path d="M248.09,634.73h-1v1a1,1,0,0,1,1-1Z"/><path d="M251.87,635.75v-1h-1A1,1,0,0,1,251.87,635.75Z"/><path d="M251.87,638.51a1,1,0,0,0,1,1h2.76a1,1,0,0,0,1-1v-3.78h-4.8Z"/><path d="M265.25,634.73h-2.76a1,1,0,0,0-1,1h0v2.76a1,1,0,0,0,1,1h3.78v-4.8Z"/><rect x="266.27" y="634.73" width="4.8" height="4.8"/><path d="M274.85,634.73a1,1,0,0,1,1,1v3.78h-4.8v-4.8Z"/><rect x="155.87" y="639.53" width="4.8" height="4.8"/><rect x="170.27" y="639.53" width="4.8" height="4.8" rx="1.02"/><rect x="179.87" y="639.53" width="4.8" height="4.8"/><path d="M185.69,639.53h-1v1a1,1,0,0,1,1-1Z"/><path d="M185.69,644.33a1,1,0,0,1-1-1v1Z"/><path d="M193.25,644.33a1,1,0,0,0,1-1v1Z"/><rect x="194.27" y="639.53" width="4.8" height="4.8"/><path d="M200.09,639.53h-1v1a1,1,0,0,1,1-1Z"/><path d="M218.27,643.31v-2.76a1,1,0,0,0-1-1h-2.76a1,1,0,0,0-1,1h0v3.78h4.8Z"/><path d="M223.07,643.31a1,1,0,0,0,1,1h2.76a1,1,0,0,0,1-1v-3.78h-4.8Z"/><path d="M236.45,644.33a1,1,0,0,0,1-1v1Z"/><rect x="237.47" y="639.53" width="4.8" height="4.8"/><path d="M243.29,639.53h-1v1a1,1,0,0,1,1-1Z"/><path d="M243.29,644.33a1,1,0,0,1-1-1v1Z"/><path d="M266.27,640.55v-1h-1A1,1,0,0,1,266.27,640.55Z"/><path d="M266.27,643.31a1,1,0,0,0,1,1h3.78v-4.8h-4.8Z"/><rect x="271.07" y="639.53" width="4.8" height="4.8"/><path d="M155.87,648.11a1,1,0,0,0,1,1h2.76a1,1,0,0,0,1-1v-3.78h-4.8Z"/><rect x="165.47" y="644.33" width="4.8" height="4.8" rx="1.02"/><path d="M179.87,648.11a1,1,0,0,0,1,1h3.78v-4.8h-4.8Z"/><rect x="184.67" y="644.33" width="4.8" height="4.8"/><rect x="189.47" y="644.33" width="4.8" height="4.8"/><rect x="194.27" y="644.33" width="4.8" height="4.8"/><path d="M200.09,649.13a1,1,0,0,1-1-1v1Z"/><path d="M213.47,648.11a1,1,0,0,0,1,1h2.76a1,1,0,0,0,1-1v-3.78h-4.8Z"/><path d="M231.65,644.33h-2.76a1,1,0,0,0-1,1h0v2.76a1,1,0,0,0,1,1h3.78v-4.8Z"/><rect x="232.67" y="644.33" width="4.8" height="4.8"/><rect x="237.47" y="644.33" width="4.8" height="4.8"/><rect x="242.27" y="644.33" width="4.8" height="4.8"/><rect x="247.07" y="644.33" width="4.8" height="4.8"/><rect x="251.87" y="644.33" width="4.8" height="4.8"/><path d="M257.69,649.13h2.76a1,1,0,0,0,1-1v-2.76a1,1,0,0,0-1-1h-3.78v4.8Z"/><path d="M271.07,645.35v-1h-1A1,1,0,0,1,271.07,645.35Z"/><rect x="271.07" y="644.33" width="4.8" height="4.8"/><path d="M194.27,650.15v-1h-1A1,1,0,0,1,194.27,650.15Z"/><rect x="194.27" y="649.13" width="4.8" height="4.8"/><rect x="199.07" y="649.13" width="4.8" height="4.8"/><path d="M207.65,649.13a1,1,0,0,1,1,1v3.78h-4.8v-4.8Z"/><path d="M209.69,653.93a1,1,0,0,1-1-1v1Z"/><path d="M222.05,653.93a1,1,0,0,0,1-1v1Z"/><path d="M227.87,652.91v-2.76a1,1,0,0,0-1-1h-2.76a1,1,0,0,0-1,1h0v3.78h4.8Z"/><path d="M232.67,650.15v-1h-1A1,1,0,0,1,232.67,650.15Z"/><rect x="232.67" y="649.13" width="4.8" height="4.8"/><path d="M238.49,649.13h-1v1a1,1,0,0,1,1-1Z"/><path d="M251.87,650.15v-1h-1A1,1,0,0,1,251.87,650.15Z"/><rect x="251.87" y="649.13" width="4.8" height="4.8"/><path d="M257.69,649.13h-1v1a1,1,0,0,1,1-1Z"/><path d="M270.05,653.93a1,1,0,0,0,1-1v1Z"/><rect x="271.07" y="649.13" width="4.8" height="4.8"/><path d="M194.27,657.71a1,1,0,0,0,1,1h2.76a1,1,0,0,0,1-1v-3.78h-4.8Z"/><path d="M200.09,653.93h-1v1a1,1,0,0,1,1-1Z"/><path d="M203.87,655v-1h-1A1,1,0,0,1,203.87,655Z"/><rect x="203.87" y="653.93" width="4.8" height="4.8"/><rect x="208.67" y="653.93" width="4.8" height="4.8"/><rect x="213.47" y="653.93" width="4.8" height="4.8"/><rect x="218.27" y="653.93" width="4.8" height="4.8"/><path d="M227.87,657.71a1,1,0,0,1-1,1h-3.78v-4.8h4.8Z"/><rect x="232.67" y="653.93" width="4.8" height="4.8"/><rect x="242.27" y="653.93" width="4.8" height="4.8" rx="1.02"/><rect x="251.87" y="653.93" width="4.8" height="4.8"/><path d="M257.69,658.73a1,1,0,0,1-1-1v1Z"/><path d="M265.25,653.93h-2.76a1,1,0,0,0-1,1h0v2.76a1,1,0,0,0,1,1h3.78v-4.8Z"/><rect x="266.27" y="653.93" width="4.8" height="4.8"/><path d="M275.87,657.71a1,1,0,0,1-1,1h-3.78v-4.8h4.8Z"/><path d="M202.85,663.53a1,1,0,0,0,1-1v1Z"/><rect x="203.87" y="658.73" width="4.8" height="4.8"/><rect x="208.67" y="658.73" width="4.8" height="4.8"/><path d="M214.49,658.73h-1v1a1,1,0,0,1,1-1Z"/><path d="M214.49,663.53a1,1,0,0,1-1-1v1Z"/><rect x="232.67" y="658.73" width="4.8" height="4.8"/><path d="M238.49,663.53a1,1,0,0,1-1-1v1Z"/><path d="M250.85,663.53a1,1,0,0,0,1-1v1Z"/><rect x="251.87" y="658.73" width="4.8" height="4.8"/><path d="M260.45,658.73a1,1,0,0,1,1,1v3.78h-4.8v-4.8Z"/><path d="M195.29,663.53a1,1,0,0,0-1,1h0v3.78h4.8v-4.8Z"/><rect x="199.07" y="663.53" width="4.8" height="4.8"/><rect x="203.87" y="663.53" width="4.8" height="4.8"/><rect x="208.67" y="663.53" width="4.8" height="4.8"/><rect x="213.47" y="663.53" width="4.8" height="4.8"/><path d="M219.29,668.33h2.76a1,1,0,0,0,1-1v-2.76a1,1,0,0,0-1-1h-3.78v4.8Z"/><path d="M231.65,668.33a1,1,0,0,0,1-1v1Z"/><rect x="232.67" y="663.53" width="4.8" height="4.8"/><rect x="237.47" y="663.53" width="4.8" height="4.8"/><rect x="242.27" y="663.53" width="4.8" height="4.8"/><rect x="247.07" y="663.53" width="4.8" height="4.8"/><rect x="251.87" y="663.53" width="4.8" height="4.8"/><path d="M261.47,667.31a1,1,0,0,1-1,1h-3.78v-4.8h4.8Z"/><rect x="194.27" y="668.33" width="4.8" height="4.8"/><path d="M200.09,668.33h-1v1a1,1,0,0,1,1-1Z"/><path d="M203.87,669.35v-1h-1A1,1,0,0,1,203.87,669.35Z"/><path d="M202.85,673.13a1,1,0,0,0,1-1v1Z"/><path d="M200.09,673.13a1,1,0,0,1-1-1v1Z"/><rect x="203.87" y="668.33" width="4.8" height="4.8"/><path d="M209.69,668.33h-1v1a1,1,0,0,1,1-1Z"/><path d="M213.47,669.35v-1h-1A1,1,0,0,1,213.47,669.35Z"/><rect x="213.47" y="668.33" width="4.8" height="4.8"/><path d="M219.29,668.33h-1v1a1,1,0,0,1,1-1Z"/><path d="M219.29,673.13a1,1,0,0,1-1-1v1Z"/><path d="M231.65,668.33h-2.76a1,1,0,0,0-1,1h0v2.76a1,1,0,0,0,1,1h3.78v-4.8Z"/><path d="M237.47,672.11a1,1,0,0,1-1,1h-3.78v-4.8h4.8Z"/><path d="M238.49,668.33h-1v1a1,1,0,0,1,1-1Z"/><path d="M242.27,669.35v-1h-1A1,1,0,0,1,242.27,669.35Z"/><path d="M242.27,672.11a1,1,0,0,0,1,1h2.76a1,1,0,0,0,1-1v-3.78h-4.8Z"/><path d="M248.09,668.33h-1v1a1,1,0,0,1,1-1Z"/><path d="M251.87,669.35v-1h-1A1,1,0,0,1,251.87,669.35Z"/><rect x="251.87" y="668.33" width="4.8" height="4.8"/><path d="M257.69,668.33h-1v1a1,1,0,0,1,1-1Z"/><path d="M270.05,668.33h-2.76a1,1,0,0,0-1,1h0v2.76a1,1,0,0,0,1,1h3.78v-4.8Z"/><path d="M274.85,668.33a1,1,0,0,1,1,1v3.78h-4.8v-4.8Z"/><rect x="194.27" y="673.13" width="4.8" height="4.8"/><rect x="199.07" y="673.13" width="4.8" height="4.8"/><rect x="203.87" y="673.13" width="4.8" height="4.8"/><rect x="213.47" y="673.13" width="4.8" height="4.8"/><rect x="218.27" y="673.13" width="4.8" height="4.8"/><path d="M224.09,677.93h2.76a1,1,0,0,0,1-1v-2.76a1,1,0,0,0-1-1h-3.78v4.8Z"/><path d="M250.85,677.93a1,1,0,0,0,1-1v1Z"/><rect x="251.87" y="673.13" width="4.8" height="4.8"/><path d="M257.69,677.93a1,1,0,0,1-1-1v1Z"/><rect x="261.47" y="673.13" width="4.8" height="4.8" rx="1.02"/><path d="M271.07,674.15v-1h-1A1,1,0,0,1,271.07,674.15Z"/><path d="M271.07,676.91a1,1,0,0,0,1,1h2.76a1,1,0,0,0,1-1v-3.78h-4.8Z"/><rect x="194.27" y="677.93" width="4.8" height="4.8"/><path d="M200.09,677.93h-1v1a1,1,0,0,1,1-1Z"/><path d="M203.87,679v-1h-1A1,1,0,0,1,203.87,679Z"/><path d="M203.87,681.71a1,1,0,0,0,1,1h2.76a1,1,0,0,0,1-1v-3.78h-4.8Z"/><path d="M213.47,681.71a1,1,0,0,0,1,1h2.76a1,1,0,0,0,1-1v-3.78h-4.8Z"/><path d="M219.29,677.93h-1v1a1,1,0,0,1,1-1Z"/><path d="M236.45,677.93h-2.76a1,1,0,0,0-1,1h0v2.76a1,1,0,0,0,1,1h3.78v-4.8Z"/><rect x="237.47" y="677.93" width="4.8" height="4.8"/><rect x="242.27" y="677.93" width="4.8" height="4.8"/><rect x="247.07" y="677.93" width="4.8" height="4.8"/><rect x="251.87" y="677.93" width="4.8" height="4.8"/><path d="M257.69,682.73h2.76a1,1,0,0,0,1-1V679a1,1,0,0,0-1-1h-3.78v4.8Z"/><path d="M265.25,682.73a1,1,0,0,0,1-1v1Z"/><path d="M271.07,681.71V679a1,1,0,0,0-1-1h-2.76a1,1,0,0,0-1,1h0v3.78h4.8Z"/><path d="M272.09,682.73a1,1,0,0,1-1-1v1Z"/><path d="M194.27,686.51a1,1,0,0,0,1,1h2.76a1,1,0,0,0,1-1v-3.78h-4.8Z"/><path d="M222.05,682.73h-2.76a1,1,0,0,0-1,1h0v2.76a1,1,0,0,0,1,1h3.78v-4.8Z"/><rect x="223.07" y="682.73" width="4.8" height="4.8"/><path d="M228.89,687.53h2.76a1,1,0,0,0,1-1v-2.76a1,1,0,0,0-1-1h-3.78v4.8Z"/><path d="M265.25,682.73h-2.76a1,1,0,0,0-1,1h0v2.76a1,1,0,0,0,1,1h3.78v-4.8Z"/><rect x="266.27" y="682.73" width="4.8" height="4.8"/><path d="M272.09,687.53h2.76a1,1,0,0,0,1-1v-2.76a1,1,0,0,0-1-1h-3.78v4.8Z"/><path d="M156.89,567.53a1,1,0,0,0-1,1v31.57a1,1,0,0,0,1,1h31.57a1,1,0,0,0,1-1V568.55a1,1,0,0,0-1-1Zm27.78,9.6v18.62a.58.58,0,0,1-.58.58H161.26a.58.58,0,0,1-.59-.58V572.92a.59.59,0,0,1,.59-.59h22.83a.59.59,0,0,1,.58.59Z"/><path d="M179.87,586.73v-8.58a1,1,0,0,0-1-1H166.49a1,1,0,0,0-1,1v12.37a1,1,0,0,0,1,1h12.36a1,1,0,0,0,1-1Z"/><path d="M243.29,567.53a1,1,0,0,0-1,1v31.57a1,1,0,0,0,1,1h31.57a1,1,0,0,0,1-1V568.55a1,1,0,0,0-1-1Zm27.78,9.6v18.62a.58.58,0,0,1-.58.58H247.66a.58.58,0,0,1-.59-.58V572.92a.59.59,0,0,1,.59-.59h22.83a.59.59,0,0,1,.58.59Z"/><path d="M266.27,586.73v-8.58a1,1,0,0,0-1-1H252.89a1,1,0,0,0-1,1v12.37a1,1,0,0,0,1,1h12.36a1,1,0,0,0,1-1Z"/><path d="M156.89,653.93a1,1,0,0,0-1,1v31.57a1,1,0,0,0,1,1h31.57a1,1,0,0,0,1-1V655a1,1,0,0,0-1-1Zm27.78,9.6v18.62a.58.58,0,0,1-.58.58H161.26a.58.58,0,0,1-.59-.58V659.32a.59.59,0,0,1,.59-.59h22.83a.59.59,0,0,1,.58.59Z"/><path d="M179.87,673.13v-8.58a1,1,0,0,0-1-1H166.49a1,1,0,0,0-1,1v12.37a1,1,0,0,0,1,1h12.36a1,1,0,0,0,1-1Z"/><rect class="cls-3" x="140.87" y="273.99" width="150" height="150"/><rect x="203.87" y="288.99" width="4.8" height="4.8"/><rect x="227.87" y="288.99" width="4.8" height="4.8"/><rect x="194.27" y="293.79" width="4.8" height="4.8"/><rect x="199.07" y="293.79" width="4.8" height="4.8"/><rect x="203.87" y="293.79" width="4.8" height="4.8"/><rect x="218.27" y="293.79" width="4.8" height="4.8"/><rect x="223.07" y="293.79" width="4.8" height="4.8"/><rect x="232.67" y="293.79" width="4.8" height="4.8"/><rect x="194.27" y="298.59" width="4.8" height="4.8"/><rect x="227.87" y="298.59" width="4.8" height="4.8"/><rect x="232.67" y="298.59" width="4.8" height="4.8"/><rect x="199.07" y="303.39" width="4.8" height="4.8"/><rect x="213.47" y="303.39" width="4.8" height="4.8"/><rect x="227.87" y="303.39" width="4.8" height="4.8"/><rect x="232.67" y="303.39" width="4.8" height="4.8"/><rect x="194.27" y="308.19" width="4.8" height="4.8"/><rect x="199.07" y="308.19" width="4.8" height="4.8"/><rect x="203.87" y="308.19" width="4.8" height="4.8"/><rect x="213.47" y="308.19" width="4.8" height="4.8"/><rect x="218.27" y="308.19" width="4.8" height="4.8"/><rect x="223.07" y="308.19" width="4.8" height="4.8"/><rect x="232.67" y="308.19" width="4.8" height="4.8"/><rect x="194.27" y="312.99" width="4.8" height="4.8"/><rect x="203.87" y="312.99" width="4.8" height="4.8"/><rect x="213.47" y="312.99" width="4.8" height="4.8"/><rect x="227.87" y="312.99" width="4.8" height="4.8"/><rect x="194.27" y="317.79" width="4.8" height="4.8"/><rect x="203.87" y="317.79" width="4.8" height="4.8"/><rect x="213.47" y="317.79" width="4.8" height="4.8"/><rect x="223.07" y="317.79" width="4.8" height="4.8"/><rect x="232.67" y="317.79" width="4.8" height="4.8"/><rect x="194.27" y="322.59" width="4.8" height="4.8"/><rect x="203.87" y="322.59" width="4.8" height="4.8"/><rect x="208.67" y="322.59" width="4.8" height="4.8"/><rect x="155.87" y="327.39" width="4.8" height="4.8"/><rect x="160.67" y="327.39" width="4.8" height="4.8"/><rect x="170.27" y="327.39" width="4.8" height="4.8"/><rect x="184.67" y="327.39" width="4.8" height="4.8"/><rect x="189.47" y="327.39" width="4.8" height="4.8"/><rect x="208.67" y="327.39" width="4.8" height="4.8"/><rect x="213.47" y="327.39" width="4.8" height="4.8"/><rect x="218.27" y="327.39" width="4.8" height="4.8"/><rect x="232.67" y="327.39" width="4.8" height="4.8"/><rect x="242.27" y="327.39" width="4.8" height="4.8"/><rect x="247.07" y="327.39" width="4.8" height="4.8"/><rect x="251.87" y="327.39" width="4.8" height="4.8"/><rect x="261.47" y="327.39" width="4.8" height="4.8"/><rect x="266.27" y="327.39" width="4.8" height="4.8"/><rect x="165.47" y="332.19" width="4.8" height="4.8"/><rect x="170.27" y="332.19" width="4.8" height="4.8"/><rect x="189.47" y="332.19" width="4.8" height="4.8"/><rect x="194.27" y="332.19" width="4.8" height="4.8"/><rect x="199.07" y="332.19" width="4.8" height="4.8"/><rect x="208.67" y="332.19" width="4.8" height="4.8"/><rect x="213.47" y="332.19" width="4.8" height="4.8"/><rect x="218.27" y="332.19" width="4.8" height="4.8"/><rect x="223.07" y="332.19" width="4.8" height="4.8"/><rect x="227.87" y="332.19" width="4.8" height="4.8"/><rect x="232.67" y="332.19" width="4.8" height="4.8"/><rect x="242.27" y="332.19" width="4.8" height="4.8"/><rect x="251.87" y="332.19" width="4.8" height="4.8"/><rect x="266.27" y="332.19" width="4.8" height="4.8"/><rect x="165.47" y="336.99" width="4.8" height="4.8"/><rect x="170.27" y="336.99" width="4.8" height="4.8"/><rect x="179.87" y="336.99" width="4.8" height="4.8"/><rect x="184.67" y="336.99" width="4.8" height="4.8"/><rect x="208.67" y="336.99" width="4.8" height="4.8"/><rect x="213.47" y="336.99" width="4.8" height="4.8"/><rect x="218.27" y="336.99" width="4.8" height="4.8"/><rect x="237.47" y="336.99" width="4.8" height="4.8"/><rect x="242.27" y="336.99" width="4.8" height="4.8"/><rect x="247.07" y="336.99" width="4.8" height="4.8"/><rect x="256.67" y="336.99" width="4.8" height="4.8"/><rect x="261.47" y="336.99" width="4.8" height="4.8"/><rect x="155.87" y="341.79" width="4.8" height="4.8"/><rect x="165.47" y="341.79" width="4.8" height="4.8"/><rect x="175.07" y="341.79" width="4.8" height="4.8"/><rect x="194.27" y="341.79" width="4.8" height="4.8"/><rect x="199.07" y="341.79" width="4.8" height="4.8"/><rect x="203.87" y="341.79" width="4.8" height="4.8"/><rect x="208.67" y="341.79" width="4.8" height="4.8"/><rect x="213.47" y="341.79" width="4.8" height="4.8"/><rect x="232.67" y="341.79" width="4.8" height="4.8"/><rect x="237.47" y="341.79" width="4.8" height="4.8"/><rect x="242.27" y="341.79" width="4.8" height="4.8"/><rect x="247.07" y="341.79" width="4.8" height="4.8"/><rect x="251.87" y="341.79" width="4.8" height="4.8"/><rect x="271.07" y="341.79" width="4.8" height="4.8"/><rect x="160.67" y="346.59" width="4.8" height="4.8"/><rect x="165.47" y="346.59" width="4.8" height="4.8"/><rect x="184.67" y="346.59" width="4.8" height="4.8"/><rect x="189.47" y="346.59" width="4.8" height="4.8"/><rect x="203.87" y="346.59" width="4.8" height="4.8"/><rect x="208.67" y="346.59" width="4.8" height="4.8"/><rect x="218.27" y="346.59" width="4.8" height="4.8"/><rect x="223.07" y="346.59" width="4.8" height="4.8"/><rect x="232.67" y="346.59" width="4.8" height="4.8"/><rect x="242.27" y="346.59" width="4.8" height="4.8"/><rect x="247.07" y="346.59" width="4.8" height="4.8"/><rect x="261.47" y="346.59" width="4.8" height="4.8"/><rect x="266.27" y="346.59" width="4.8" height="4.8"/><rect x="271.07" y="346.59" width="4.8" height="4.8"/><rect x="170.27" y="351.39" width="4.8" height="4.8"/><rect x="208.67" y="351.39" width="4.8" height="4.8"/><rect x="247.07" y="351.39" width="4.8" height="4.8"/><rect x="251.87" y="351.39" width="4.8" height="4.8"/><rect x="261.47" y="351.39" width="4.8" height="4.8"/><rect x="266.27" y="351.39" width="4.8" height="4.8"/><rect x="271.07" y="351.39" width="4.8" height="4.8"/><rect x="155.87" y="356.19" width="4.8" height="4.8"/><rect x="165.47" y="356.19" width="4.8" height="4.8"/><rect x="170.27" y="356.19" width="4.8" height="4.8"/><rect x="179.87" y="356.19" width="4.8" height="4.8"/><rect x="184.67" y="356.19" width="4.8" height="4.8"/><rect x="189.47" y="356.19" width="4.8" height="4.8"/><rect x="199.07" y="356.19" width="4.8" height="4.8"/><rect x="208.67" y="356.19" width="4.8" height="4.8"/><rect x="223.07" y="356.19" width="4.8" height="4.8"/><rect x="227.87" y="356.19" width="4.8" height="4.8"/><rect x="232.67" y="356.19" width="4.8" height="4.8"/><rect x="242.27" y="356.19" width="4.8" height="4.8"/><rect x="251.87" y="356.19" width="4.8" height="4.8"/><rect x="256.67" y="356.19" width="4.8" height="4.8"/><rect x="271.07" y="356.19" width="4.8" height="4.8"/><rect x="160.67" y="360.99" width="4.8" height="4.8"/><rect x="165.47" y="360.99" width="4.8" height="4.8"/><rect x="175.07" y="360.99" width="4.8" height="4.8"/><rect x="194.27" y="360.99" width="4.8" height="4.8"/><rect x="199.07" y="360.99" width="4.8" height="4.8"/><rect x="203.87" y="360.99" width="4.8" height="4.8"/><rect x="208.67" y="360.99" width="4.8" height="4.8"/><rect x="218.27" y="360.99" width="4.8" height="4.8"/><rect x="223.07" y="360.99" width="4.8" height="4.8"/><rect x="242.27" y="360.99" width="4.8" height="4.8"/><rect x="247.07" y="360.99" width="4.8" height="4.8"/><rect x="155.87" y="365.79" width="4.8" height="4.8"/><rect x="160.67" y="365.79" width="4.8" height="4.8"/><rect x="165.47" y="365.79" width="4.8" height="4.8"/><rect x="170.27" y="365.79" width="4.8" height="4.8"/><rect x="175.07" y="365.79" width="4.8" height="4.8"/><rect x="179.87" y="365.79" width="4.8" height="4.8"/><rect x="184.67" y="365.79" width="4.8" height="4.8"/><rect x="189.47" y="365.79" width="4.8" height="4.8"/><rect x="213.47" y="365.79" width="4.8" height="4.8"/><rect x="218.27" y="365.79" width="4.8" height="4.8"/><rect x="223.07" y="365.79" width="4.8" height="4.8"/><rect x="232.67" y="365.79" width="4.8" height="4.8"/><rect x="237.47" y="365.79" width="4.8" height="4.8"/><rect x="242.27" y="365.79" width="4.8" height="4.8"/><rect x="247.07" y="365.79" width="4.8" height="4.8"/><rect x="251.87" y="365.79" width="4.8" height="4.8"/><rect x="271.07" y="365.79" width="4.8" height="4.8"/><rect x="194.27" y="370.59" width="4.8" height="4.8"/><rect x="199.07" y="370.59" width="4.8" height="4.8"/><rect x="203.87" y="370.59" width="4.8" height="4.8"/><rect x="213.47" y="370.59" width="4.8" height="4.8"/><rect x="218.27" y="370.59" width="4.8" height="4.8"/><rect x="232.67" y="370.59" width="4.8" height="4.8"/><rect x="251.87" y="370.59" width="4.8" height="4.8"/><rect x="194.27" y="375.39" width="4.8" height="4.8"/><rect x="199.07" y="375.39" width="4.8" height="4.8"/><rect x="203.87" y="375.39" width="4.8" height="4.8"/><rect x="208.67" y="375.39" width="4.8" height="4.8"/><rect x="213.47" y="375.39" width="4.8" height="4.8"/><rect x="218.27" y="375.39" width="4.8" height="4.8"/><rect x="227.87" y="375.39" width="4.8" height="4.8"/><rect x="232.67" y="375.39" width="4.8" height="4.8"/><rect x="242.27" y="375.39" width="4.8" height="4.8"/><rect x="251.87" y="375.39" width="4.8" height="4.8"/><rect x="256.67" y="375.39" width="4.8" height="4.8"/><rect x="266.27" y="375.39" width="4.8" height="4.8"/><rect x="271.07" y="375.39" width="4.8" height="4.8"/><rect x="199.07" y="380.19" width="4.8" height="4.8"/><rect x="213.47" y="380.19" width="4.8" height="4.8"/><rect x="232.67" y="380.19" width="4.8" height="4.8"/><rect x="251.87" y="380.19" width="4.8" height="4.8"/><rect x="256.67" y="380.19" width="4.8" height="4.8"/><rect x="261.47" y="380.19" width="4.8" height="4.8"/><rect x="266.27" y="380.19" width="4.8" height="4.8"/><rect x="271.07" y="380.19" width="4.8" height="4.8"/><rect x="199.07" y="384.99" width="4.8" height="4.8"/><rect x="203.87" y="384.99" width="4.8" height="4.8"/><rect x="213.47" y="384.99" width="4.8" height="4.8"/><rect x="218.27" y="384.99" width="4.8" height="4.8"/><rect x="227.87" y="384.99" width="4.8" height="4.8"/><rect x="232.67" y="384.99" width="4.8" height="4.8"/><rect x="237.47" y="384.99" width="4.8" height="4.8"/><rect x="242.27" y="384.99" width="4.8" height="4.8"/><rect x="247.07" y="384.99" width="4.8" height="4.8"/><rect x="251.87" y="384.99" width="4.8" height="4.8"/><rect x="261.47" y="384.99" width="4.8" height="4.8"/><rect x="266.27" y="384.99" width="4.8" height="4.8"/><rect x="194.27" y="389.79" width="4.8" height="4.8"/><rect x="199.07" y="389.79" width="4.8" height="4.8"/><rect x="208.67" y="389.79" width="4.8" height="4.8"/><rect x="218.27" y="389.79" width="4.8" height="4.8"/><rect x="227.87" y="389.79" width="4.8" height="4.8"/><rect x="232.67" y="389.79" width="4.8" height="4.8"/><rect x="237.47" y="389.79" width="4.8" height="4.8"/><rect x="247.07" y="389.79" width="4.8" height="4.8"/><rect x="251.87" y="389.79" width="4.8" height="4.8"/><rect x="199.07" y="394.59" width="4.8" height="4.8"/><rect x="203.87" y="394.59" width="4.8" height="4.8"/><rect x="213.47" y="394.59" width="4.8" height="4.8"/><rect x="223.07" y="394.59" width="4.8" height="4.8"/><rect x="227.87" y="394.59" width="4.8" height="4.8"/><rect x="247.07" y="394.59" width="4.8" height="4.8"/><rect x="256.67" y="394.59" width="4.8" height="4.8"/><rect x="261.47" y="394.59" width="4.8" height="4.8"/><rect x="271.07" y="394.59" width="4.8" height="4.8"/><rect x="194.27" y="399.39" width="4.8" height="4.8"/><rect x="199.07" y="399.39" width="4.8" height="4.8"/><rect x="203.87" y="399.39" width="4.8" height="4.8"/><rect x="218.27" y="399.39" width="4.8" height="4.8"/><rect x="232.67" y="399.39" width="4.8" height="4.8"/><rect x="237.47" y="399.39" width="4.8" height="4.8"/><rect x="256.67" y="399.39" width="4.8" height="4.8"/><rect x="266.27" y="399.39" width="4.8" height="4.8"/><rect x="271.07" y="399.39" width="4.8" height="4.8"/><rect x="194.27" y="404.19" width="4.8" height="4.8"/><rect x="203.87" y="404.19" width="4.8" height="4.8"/><rect x="213.47" y="404.19" width="4.8" height="4.8"/><rect x="218.27" y="404.19" width="4.8" height="4.8"/><rect x="223.07" y="404.19" width="4.8" height="4.8"/><rect x="232.67" y="404.19" width="4.8" height="4.8"/><rect x="251.87" y="404.19" width="4.8" height="4.8"/><rect x="256.67" y="404.19" width="4.8" height="4.8"/><rect x="266.27" y="404.19" width="4.8" height="4.8"/><rect x="271.07" y="404.19" width="4.8" height="4.8"/><path d="M156.89,289a1,1,0,0,0-1,1v31.57a1,1,0,0,0,1,1h31.57a1,1,0,0,0,1-1V290a1,1,0,0,0-1-1Zm27.78,9.61V317.2a.58.58,0,0,1-.58.59H161.26a.59.59,0,0,1-.59-.59V294.37a.59.59,0,0,1,.59-.58h22.83a.58.58,0,0,1,.58.58Z"/><path d="M179.87,308.19V299.6a1,1,0,0,0-1-1H166.49a1,1,0,0,0-1,1V312a1,1,0,0,0,1,1h12.36a1,1,0,0,0,1-1Z"/><path d="M243.29,289a1,1,0,0,0-1,1v31.57a1,1,0,0,0,1,1h31.57a1,1,0,0,0,1-1V290a1,1,0,0,0-1-1Zm27.78,9.61V317.2a.58.58,0,0,1-.58.59H247.66a.59.59,0,0,1-.59-.59V294.37a.59.59,0,0,1,.59-.58h22.83a.58.58,0,0,1,.58.58Z"/><path d="M266.27,308.19V299.6a1,1,0,0,0-1-1H252.89a1,1,0,0,0-1,1V312a1,1,0,0,0,1,1h12.36a1,1,0,0,0,1-1Z"/><path d="M156.89,375.38a1,1,0,0,0-1,1V408a1,1,0,0,0,1,1h31.57a1,1,0,0,0,1-1V376.4a1,1,0,0,0-1-1ZM184.67,385V403.6a.58.58,0,0,1-.58.59H161.26a.59.59,0,0,1-.59-.59V380.77a.59.59,0,0,1,.59-.58h22.83a.58.58,0,0,1,.58.58Z"/><path d="M179.87,394.59V386a1,1,0,0,0-1-1H166.49a1,1,0,0,0-1,1v12.37a1,1,0,0,0,1,1h12.36a1,1,0,0,0,1-1Z"/><path class="cls-3" d="M464.86,360.17h-6.31A2.15,2.15,0,0,1,456.4,358V341.34l-11.08,7a2.87,2.87,0,0,1-3,0l-11.07-7V358a2.15,2.15,0,0,1-2.15,2.15h-6.31A2.15,2.15,0,0,1,420.6,358V325.87a2.86,2.86,0,0,1,4.48-2.36l17.51,12a2.16,2.16,0,0,0,2.43,0l17.5-12a2.86,2.86,0,0,1,4.48,2.36V358A2.15,2.15,0,0,1,464.86,360.17Z"/><path class="cls-3" d="M411.14,360.1H371.86a2.86,2.86,0,0,1-2.86-2.86V324.89a2.14,2.14,0,0,1,2.15-2.14h6.31a2.14,2.14,0,0,1,2.14,2.14V349.5h23.8V324.89a2.14,2.14,0,0,1,2.15-2.14h6.31a2.14,2.14,0,0,1,2.14,2.14v32.35A2.86,2.86,0,0,1,411.14,360.1Z"/><path class="cls-3" d="M476.46,322.75h39.28a2.86,2.86,0,0,1,2.86,2.86V358a2.14,2.14,0,0,1-2.14,2.15h-6.31A2.15,2.15,0,0,1,508,358V334.78a1.43,1.43,0,0,0-1.43-1.43H485.64a1.44,1.44,0,0,0-1.44,1.43V358a2.14,2.14,0,0,1-2.14,2.15h-6.31A2.15,2.15,0,0,1,473.6,358V325.61A2.86,2.86,0,0,1,476.46,322.75Z"/><rect class="cls-3" x="490.8" y="340.15" width="10.6" height="10.7" rx="2.15"/><path class="cls-3" d="M709,336c1-.37,1.93-.81,3-1.31s2-1,3-1.61,1.93-1.2,2.82-1.86a19,19,0,0,0,2.43-2.07h5.1V361.7H718V338.42a24,24,0,0,1-3.28,1.75c-1.22.52-2.39,1-3.52,1.35Z"/><path class="cls-3" d="M774.69,329.26a3.82,3.82,0,0,1-1.28,3.07,4.67,4.67,0,0,1-6.07,0,4.33,4.33,0,0,1,0-6.15,4.67,4.67,0,0,1,6.09,0A4,4,0,0,1,774.69,329.26Zm-.53,32.44h-7.31V336.61h7.31Z"/><path class="cls-3" d="M788.45,361.7c-1.66-3.18-3.32-6.89-5-11.17s-3.32-8.9-4.83-13.92h7.65c.33,1.24.7,2.57,1.15,4s.88,2.9,1.37,4.38.93,2.93,1.42,4.32.93,2.66,1.39,3.82c.42-1.13.87-2.42,1.35-3.82s1-2.83,1.44-4.32.93-2.94,1.35-4.38.82-2.8,1.16-4h7.46c-1.53,5-3.12,9.67-4.83,13.92a119.85,119.85,0,0,1-5,11.17Z"/><path class="cls-3" d="M806.25,349.31a15.2,15.2,0,0,1,1-5.85,12.54,12.54,0,0,1,2.74-4.19,11.51,11.51,0,0,1,3.9-2.53,12.44,12.44,0,0,1,4.54-.85,11.32,11.32,0,0,1,8.57,3.27c2.11,2.18,3.15,5.39,3.15,9.63,0,.41,0,.87-.05,1.35s-.06.94-.09,1.31H813.67a4.78,4.78,0,0,0,2.09,3.49,8.47,8.47,0,0,0,4.93,1.29,20.88,20.88,0,0,0,3.9-.35,14.67,14.67,0,0,0,3.13-.88l1,5.79a9,9,0,0,1-1.55.56c-.64.2-1.37.35-2.15.51s-1.64.26-2.55.34-1.81.16-2.72.16a15.93,15.93,0,0,1-6-1,11.63,11.63,0,0,1-4.21-2.75,10.91,10.91,0,0,1-2.48-4.12A16.47,16.47,0,0,1,806.25,349.31Zm17-2.88a6.57,6.57,0,0,0-.31-1.77,4.27,4.27,0,0,0-.82-1.53,4.79,4.79,0,0,0-1.4-1.09,5.41,5.41,0,0,0-4.18,0,4.39,4.39,0,0,0-1.46,1.07,4.34,4.34,0,0,0-.89,1.55,10.23,10.23,0,0,0-.46,1.79Z"/><path class="cls-3" d="M753.13,329.19h7.53V361.7h-7.53V348H740.72V361.7h-7.53V329.19h7.53v12.44h12.41Z"/><path class="cls-3" d="M643.31,310.15a1.86,1.86,0,0,1-1.85-1.86,8.4,8.4,0,0,0-8.39-8.39,1.86,1.86,0,0,1-1.32-3.17,1.85,1.85,0,0,1,1.32-.54,12.1,12.1,0,0,1,12.1,12.1,1.86,1.86,0,0,1-1.86,1.86Z"/><path class="cls-3" d="M651,310.15a1.86,1.86,0,0,1-1.86-1.86,12.12,12.12,0,0,1,12.1-12.1,1.85,1.85,0,0,1,1.32.54,1.87,1.87,0,0,1,0,2.63,1.85,1.85,0,0,1-1.32.54,8.4,8.4,0,0,0-8.39,8.39,1.86,1.86,0,0,1-1.85,1.86Z"/><path class="cls-3" d="M622.53,358.82a30.71,30.71,0,0,1-16.26,1.45c-5.19-1-8.22-3.21-8.69-4.17-.24-.51,0-.66.15-.78l23.53-13.63V337.4l-25.42,14.72,0,0a4.15,4.15,0,0,0-1.56,5.57c1.29,2.64,5.84,5.13,11.33,6.2a32.47,32.47,0,0,0,6.06.57,36.5,36.5,0,0,0,14.17-3l-.95-.55A7.12,7.12,0,0,1,622.53,358.82Z"/><path class="cls-3" d="M698.3,352.15l0,0L672.83,337.4v4.29l23.54,13.63c.19.12.39.27.15.78-.47,1-3.5,3.17-8.7,4.17a30.68,30.68,0,0,1-16.25-1.45,7.09,7.09,0,0,1-2.31,2.15l-1,.56a36.46,36.46,0,0,0,14.16,3,32.5,32.5,0,0,0,6.07-.57c5.49-1.06,10-3.55,11.33-6.2A4.15,4.15,0,0,0,698.3,352.15Z"/><path class="cls-3" d="M669.25,327.06l-18.61-10.74a7.28,7.28,0,0,0-3.58-1,7.19,7.19,0,0,0-3.59,1l-18.62,10.74a7.2,7.2,0,0,0-3.59,6.2v21.5a7.23,7.23,0,0,0,3.59,6.22l18.61,10.74a7.19,7.19,0,0,0,7.18,0L669.26,361a7.21,7.21,0,0,0,3.57-6.21v-21.5a7.1,7.1,0,0,0-1-3.57A7.18,7.18,0,0,0,669.25,327.06Zm-42.54,3.22,6-3.48h28.64l6,3.47a3.49,3.49,0,0,1,1.26,1.27,3.58,3.58,0,0,1,.47,1.72V338H625v-4.72a3.37,3.37,0,0,1,.47-1.72A3.46,3.46,0,0,1,626.71,330.28Zm40.69,27.48-6,3.44H632.67l-6-3.44a3.51,3.51,0,0,1-1.73-3V350h44.14v4.73a3.5,3.5,0,0,1-.46,1.73A3.57,3.57,0,0,1,667.4,357.76Z"/><text class="cls-106" transform="translate(542.83 362.9)">+</text><text class="cls-107" transform="translate(408.38 467.05)">T<tspan class="cls-108" x="39.34" y="0">r</tspan><tspan class="cls-109" x="68.11" y="0">i</tspan><tspan class="cls-110" x="87.22" y="0">v</tspan><tspan class="cls-111" x="126.33" y="0">i</tspan><tspan class="cls-112" x="145.59" y="0">a N</tspan><tspan class="cls-113" x="254.38" y="0">i</tspan><tspan class="cls-112" x="273.79" y="0">g</tspan><tspan class="cls-114" x="315.67" y="0">h</tspan><tspan class="cls-115" x="356.81" y="0">t</tspan></text><text class="cls-116" transform="translate(407.98 531.24)"><tspan class="cls-117">De</tspan><tspan class="cls-118" x="50.2" y="0">c</tspan><tspan x="71.56" y="0">e</tspan><tspan class="cls-117" x="93.36" y="0">mb</tspan><tspan x="150.6" y="0">e</tspan><tspan class="cls-119" x="172.4" y="0">r </tspan><tspan class="cls-120" x="195.28" y="0">17th</tspan><tspan class="cls-121" x="272.56" y="0">,</tspan><tspan x="282.28" y="0" xml:space="preserve"> 2021</tspan></text><line class="cls-122" x1="355.79" y1="393.81" x2="843.41" y2="393.81"/><text class="cls-123" transform="translate(530.29 605.53)"><tspan class="cls-124">E</tspan><tspan class="cls-125" x="35.86" y="0">g</tspan><tspan class="cls-126" x="70.2" y="0">g</tspan><tspan class="cls-127" x="103.84" y="0">c</tspan><tspan x="134.7" y="0">e</tspan><tspan class="cls-128" x="166.88" y="0">l</tspan><tspan class="cls-129" x="180.82" y="0">l</tspan><tspan x="194.51" y="0">e</tspan><tspan class="cls-130" x="226.69" y="0">n</tspan><tspan class="cls-131" x="258.62" y="0">t</tspan><tspan class="cls-132" x="0" y="59.19">a</tspan><tspan class="cls-133" x="30.86" y="59.19">t</tspan><tspan class="cls-134" x="51.64" y="59.19">t</tspan><tspan x="71.34" y="59.19">end</tspan><tspan class="cls-135" x="170.24" y="59.19">e</tspan><tspan class="cls-136" x="202.55" y="59.19">e</tspan><tspan class="cls-137" x="234.93" y="59.19">.</tspan></text><path class="cls-3" d="M477.81,562.39l-9.12,19.5-2.56,15.6-19.51.82L449.18,583l-26.75-23.52L395.33,570l-7.67,34.11,26.95-7-1.05,6.77,11.86,20.31,10.73,6.81-2.59,12.54,14.34-5.07,2.86,1.84v9.95l3.56,11.35-8.62,10.56h37.83l-15.07-11.73-2.53-13.07,30.16-20.75,8.52-17-4.76-30.53,15.92-12.64L496,557.3m12.56,10.05-9.4,7.45-2-12.54ZM392.68,599l5.89-26.15,21.13-8.25-4.44,28.53Zm35.54,22.58L417.49,603.2l5.9-37.88,21.73,19.13-2.58,15.49L437,627.09Zm10.41,16.27,7.32-35.7,21-.9,9.58,10L474.8,625Zm33.92,30.64H453.64l4.92-6-4-12.74v-7l7.55,4.79L465,662.62Zm20.58-44.32-29.21,20.1L452.44,637l25.82-9.13,2-15.39,19.3-1Zm7.32-16.58-21.16,1.11-9.55-10,2.56-15.59,9.05-17.85,12-3.66Z"/></svg>